<?xml version="1.0" encoding="UTF-8" standalone="no"?>
<!-- Created with Inkscape (http://www.inkscape.org/) -->
<svg
   xmlns:svg="http://www.w3.org/2000/svg"
   xmlns="http://www.w3.org/2000/svg"
   xmlns:xlink="http://www.w3.org/1999/xlink"
   version="1.0"
   x="0.0000000"
   y="0.0000000"
   width="400.00000"
   height="480.00000"
   viewBox="0 0 29700 21000"
   id="svg1613"
   xml:space="preserve">
 <defs
   id="defs1615">
  <style
   type="text/css"
   id="style1617" />
  <linearGradient
   x1="19041.000"
   y1="18194.000"
   x2="17371.000"
   y2="18194.000"
   id="id0"
   gradientUnits="userSpaceOnUse">
   <stop
   style="stop-color:#ffffff;stop-opacity:1.0000000"
   offset="0.0000000"
   id="stop1620" />
   <stop
   style="stop-color:#bff2ff;stop-opacity:1.0000000"
   offset="1.0000000"
   id="stop1622" />
  </linearGradient>
  <linearGradient
   x1="23832.000"
   y1="18194.000"
   x2="22162.000"
   y2="18194.000"
   id="id1"
   gradientUnits="userSpaceOnUse">
   <stop
   style="stop-color:#ffffff;stop-opacity:1.0000000"
   offset="0.0000000"
   id="stop1625" />
   <stop
   style="stop-color:#f2bfff;stop-opacity:1.0000000"
   offset="1.0000000"
   id="stop1627" />
  </linearGradient>
  <linearGradient
   x1="20493.000"
   y1="18194.000"
   x2="22162.000"
   y2="18194.000"
   id="id2"
   gradientUnits="userSpaceOnUse">
  </linearGradient>
  <linearGradient
   x1="15701.000"
   y1="18194.000"
   x2="17371.000"
   y2="18194.000"
   id="id3"
   gradientUnits="userSpaceOnUse">
   <stop
   style="stop-color:#ffffff;stop-opacity:1.0000000"
   offset="0.0000000"
   id="stop1631" />
   <stop
   style="stop-color:#ffe57f;stop-opacity:1.0000000"
   offset="1.0000000"
   id="stop1633" />
  </linearGradient>
  <linearGradient
   x1="22330.000"
   y1="9984.0000"
   x2="28570.000"
   y2="18931.000"
   id="id4"
   gradientUnits="userSpaceOnUse">
   <stop
   style="stop-color:#1267f8;stop-opacity:1.0000000"
   offset="0.0000000"
   id="stop1636" />
   <stop
   style="stop-color:#ffffff;stop-opacity:1.0000000"
   offset="1.0000000"
   id="stop1638" />
  </linearGradient>
 
  
  
  
  
  
  
  
  
  
  
  
  
  
  
  
  
  
  
  
  
  
  
  
  
  
  
  
  
  
  
  
  
  
  
  
  
  
  
  
  
  
  
  
  
  
  
  
  
  
  
  
  
  
  
  
  
  
  
  
  
  
  
  
  
  
  
  
  
  
  
  
  
  
  
  
  
  
  
  
  
  
  
  
  
  
  
  
  
  
  
  
  
  
  
  
  
 
   
   
   
   
   
  <linearGradient
   x1="22330.000"
   y1="9984.0000"
   x2="28570.000"
   y2="18931.000"
   id="linearGradient2916"
   xlink:href="#id4"
   gradientUnits="userSpaceOnUse"
   gradientTransform="matrix(1.981610,0.000000,0.000000,1.981610,-26339.90,-11321.77)" /><linearGradient
   x1="23832.000"
   y1="18194.000"
   x2="22162.000"
   y2="18194.000"
   id="linearGradient2920"
   xlink:href="#id1"
   gradientUnits="userSpaceOnUse"
   gradientTransform="matrix(1.981610,0.000000,0.000000,1.981610,-26339.90,-11321.77)" /><linearGradient
   x1="19041.000"
   y1="18194.000"
   x2="17371.000"
   y2="18194.000"
   id="linearGradient2923"
   xlink:href="#id0"
   gradientUnits="userSpaceOnUse"
   gradientTransform="matrix(1.981610,0.000000,0.000000,1.981610,-26339.90,-11321.77)" /><linearGradient
   x1="15701.000"
   y1="18194.000"
   x2="17371.000"
   y2="18194.000"
   id="linearGradient2926"
   xlink:href="#id3"
   gradientUnits="userSpaceOnUse"
   gradientTransform="matrix(1.981610,0.000000,0.000000,1.981610,-26339.90,-11321.77)" /><linearGradient
   x1="19041.000"
   y1="18194.000"
   x2="17371.000"
   y2="18194.000"
   id="linearGradient2929"
   xlink:href="#id0"
   gradientUnits="userSpaceOnUse"
   gradientTransform="matrix(1.981610,0.000000,0.000000,1.981610,-52000.29,-11321.77)" /></defs>
 <rect
   width="24264.811"
   height="31854.375"
   x="4773.3550"
   y="-7122.7427"
   style="fill:#ffffff;fill-opacity:1.0000000;stroke:#000000;stroke-width:35.277771;stroke-miterlimit:4.0000000;stroke-dasharray:none"
   id="rect3768" /><rect
   width="3309.2878"
   height="31854.373"
   x="-17577.768"
   y="-7122.7446"
   transform="scale(-1.000000,1.000000)"
   style="fill:url(#linearGradient2929)"
   id="rect2012" /><rect
   width="3309.2878"
   height="31854.373"
   x="4773.3535"
   y="-7122.7446"
   style="fill:url(#linearGradient2926)"
   id="rect1641" /><rect
   width="3309.2878"
   height="31854.373"
   x="8082.6416"
   y="-7122.7446"
   style="fill:url(#linearGradient2923)"
   id="rect1643" /><rect
   width="3309.2878"
   height="31854.373"
   x="17576.535"
   y="-7122.7446"
   style="fill:url(#linearGradient2920)"
   id="rect1647" /><path
   d="M 28227.686,23271.186 L 27157.617,22038.624 L 26216.352,20806.063 L 24399.216,18243.843 L 23426.246,16557.492 L 21642.797,13929.878 L 19891.055,11236.870 L 18884.397,9744.7185 L 17166.342,7376.6949 L 14602.139,4067.4069 L 11586.128,-149.45839 L 9703.5993,-2452.0888 L 8064.8087,-4623.9329 C 7175.0660,-5799.0274 6227.8566,-6637.2482 5001.2403,-6744.2550 L 4773.3551,-6756.1449"
   style="fill:none;stroke:#1267f8;stroke-width:70.999977"
   id="path1649" /><path
   d="M 15430.449,5068.1173 L 18898.267,10000.343 L 21517.954,14155.778 L 23473.803,17300.592 L 24387.325,18996.851 L 25023.421,20080.791 L 26947.565,22894.675 L 28096.897,24474.018 L 28417.919,24808.910 L 29038.161,24731.629 L 29038.161,22948.180 L 28096.897,21947.466 L 26947.565,20609.880 L 25257.251,18608.455 L 24387.325,17476.956 L 23553.067,16085.865 L 21874.644,13749.548 L 19167.764,9827.9433 L 17053.387,7061.6165 L 15430.449,5068.1173 z "
   style="fill:url(#linearGradient2916)"
   id="path1651" /><rect
   width="24264.811"
   height="31854.375"
   x="4773.3550"
   y="-7122.7427"
   style="fill:none;stroke:#000000;stroke-width:35.277771;stroke-miterlimit:4.0000000;stroke-dasharray:none"
   id="rect1653" /><g
   transform="matrix(1.981610,0.000000,0.000000,1.981610,-26339.90,-11321.77)"
   id="g1655">
   <path
   d="M 15701.000,2567.0000 L 15963.000,2567.0000"
   style="fill:none;stroke:#000000;stroke-width:4.0371208"
   id="path1657" />
   <path
   d="M 15701.000,4028.0000 L 15963.000,4028.0000"
   style="fill:none;stroke:#000000;stroke-width:4.0371208"
   id="path1659" />
   <path
   d="M 15701.000,5490.0000 L 15963.000,5490.0000"
   style="fill:none;stroke:#000000;stroke-width:4.0371208"
   id="path1661" />
   <path
   d="M 15701.000,6951.0000 L 15963.000,6951.0000"
   style="fill:none;stroke:#000000;stroke-width:4.0371208"
   id="path1663" />
   <path
   d="M 15701.000,8413.0000 L 15963.000,8413.0000"
   style="fill:none;stroke:#000000;stroke-width:4.0371208"
   id="path1665" />
   <path
   d="M 15701.000,9874.0000 L 15963.000,9874.0000"
   style="fill:none;stroke:#000000;stroke-width:4.0371208"
   id="path1667" />
   <path
   d="M 15701.000,11336.000 L 15963.000,11336.000"
   style="fill:none;stroke:#000000;stroke-width:4.0371208"
   id="path1669" />
   <path
   d="M 15701.000,12797.000 L 15963.000,12797.000"
   style="fill:none;stroke:#000000;stroke-width:4.0371208"
   id="path1671" />
   <path
   d="M 15701.000,14259.000 L 15963.000,14259.000"
   style="fill:none;stroke:#000000;stroke-width:4.0371208"
   id="path1673" />
   <path
   d="M 15701.000,15720.000 L 15963.000,15720.000"
   style="fill:none;stroke:#000000;stroke-width:4.0371208"
   id="path1675" />
   <path
   d="M 15701.000,17182.000 L 15963.000,17182.000"
   style="fill:none;stroke:#000000;stroke-width:4.0371208"
   id="path1677" />
   
  </g><g
   transform="matrix(1.981610,0.000000,0.000000,1.981610,-26339.90,-11321.77)"
   id="g1683">
   <path
   d="M 16383.000,18194.000 L 16383.000,17893.000"
   style="fill:none;stroke:#000000;stroke-width:4.0371208"
   id="path1685" />
   <path
   d="M 18310.000,18194.000 L 18310.000,17893.000"
   style="fill:none;stroke:#000000;stroke-width:4.0371208"
   id="path1687" />
   <path
   d="M 20237.000,18194.000 L 20237.000,17893.000"
   style="fill:none;stroke:#000000;stroke-width:4.0371208"
   id="path1689" />
   <path
   d="M 22164.000,18194.000 L 22164.000,17893.000"
   style="fill:none;stroke:#000000;stroke-width:4.0371208"
   id="path1691" />
   <path
   d="M 24092.000,18194.000 L 24092.000,17893.000"
   style="fill:none;stroke:#000000;stroke-width:4.0371208"
   id="path1693" />
   <path
   d="M 26019.000,18194.000 L 26019.000,17893.000"
   style="fill:none;stroke:#000000;stroke-width:4.0371208"
   id="path1695" />
   <path
   d="M 27946.000,18194.000 L 27946.000,17893.000"
   style="fill:none;stroke:#000000;stroke-width:4.0371208"
   id="path1697" />
  </g><path
   d="M 16521.027,27242.880 L 16508.476,27333.469 L 16203.420,27333.469 L 16170.132,27572.493 L 16439.170,27572.493 L 16427.164,27663.082 L 16156.489,27663.082 L 16119.926,27914.657 L 16521.027,27914.657 L 16507.385,28005.246 L 16006.962,28005.246 L 16117.743,27242.880 L 16521.027,27242.880 M 17130.047,27233.057 L 17191.713,27233.057 C 17146.236,27300.727 17113.130,27358.573 17092.393,27406.595 C 17072.019,27454.619 17056.557,27509.736 17046.007,27571.947 C 17035.820,27633.795 17030.727,27693.642 17030.727,27751.488 C 17030.727,27950.129 17084.389,28120.028 17191.713,28261.187 L 17130.047,28261.187 L 17113.676,28240.996 C 17072.565,28191.517 17042.005,28150.952 17021.995,28119.301 C 17002.349,28087.649 16982.704,28046.539 16963.058,27995.969 C 16931.406,27915.203 16915.580,27832.618 16915.581,27748.214 C 16915.580,27662.354 16931.406,27579.588 16963.058,27499.912 C 16994.709,27419.875 17050.372,27330.923 17130.047,27233.057 M 17704.687,27762.948 L 17351.608,27762.948 C 17354.155,27810.971 17370.162,27849.171 17399.631,27877.548 C 17429.463,27905.926 17467.846,27920.114 17514.777,27920.114 C 17580.263,27920.114 17640.656,27899.741 17695.955,27858.994 L 17695.955,27956.132 C 17665.395,27976.505 17635.017,27991.057 17604.821,27999.789 C 17574.988,28008.520 17539.880,28012.886 17499.497,28012.886 C 17444.198,28012.886 17399.449,28001.426 17365.251,27978.506 C 17331.053,27955.586 17303.585,27924.844 17282.848,27886.280 C 17262.474,27847.352 17252.288,27802.422 17252.288,27751.488 C 17252.288,27675.088 17273.934,27613.058 17317.228,27565.398 C 17360.521,27517.376 17416.730,27493.364 17485.854,27493.364 C 17552.432,27493.364 17605.548,27516.648 17645.204,27563.216 C 17684.859,27609.784 17704.686,27672.177 17704.687,27750.396 L 17704.687,27762.948 M 17353.791,27703.465 L 17606.458,27703.465 C 17603.911,27663.810 17592.087,27633.250 17570.986,27611.784 C 17549.885,27590.320 17521.508,27579.588 17485.854,27579.587 C 17450.201,27579.588 17420.914,27590.320 17397.994,27611.784 C 17375.438,27633.250 17360.703,27663.810 17353.791,27703.465 M 18307.704,27242.880 L 18416.301,27242.880 L 18094.329,28008.520 L 18069.771,28008.520 L 17741.250,27242.880 L 17850.939,27242.880 L 18080.140,27778.228 L 18307.704,27242.880 M 18490.519,28261.187 L 18429.399,28261.187 C 18476.694,28189.880 18510.346,28129.306 18530.356,28079.464 C 18550.366,28029.985 18565.282,27975.596 18575.105,27916.294 C 18584.928,27856.629 18589.839,27799.511 18589.839,27744.939 C 18589.839,27681.636 18584.018,27620.334 18572.376,27561.033 C 18561.098,27501.732 18543.999,27445.523 18521.079,27392.406 C 18498.523,27338.927 18467.962,27285.810 18429.399,27233.057 L 18490.519,27233.057 L 18507.436,27253.249 C 18548.183,27301.636 18578.379,27341.655 18598.025,27373.306 C 18618.034,27404.958 18637.862,27446.251 18657.508,27497.184 C 18689.159,27577.950 18704.985,27661.263 18704.985,27747.122 C 18704.985,27829.344 18690.615,27908.472 18661.874,27984.509 C 18647.685,28022.345 18629.676,28060.000 18607.848,28097.472 C 18586.383,28134.945 18547.273,28189.516 18490.519,28261.187"
   style="font-size:1117.6277px;font-weight:normal;fill:#000000;font-family:Gill Sans MT"
   id="text1779" /><path
   d="M 5750.3105,25501.048 L 5859.4538,25501.048 L 5859.4538,26263.414 L 5750.3105,26263.414 L 5750.3105,25501.048 M 6366.9703,25491.225 C 6436.8217,25491.226 6494.4857,25527.971 6539.9625,25601.460 C 6585.8022,25674.586 6608.7222,25767.540 6608.7228,25880.321 C 6608.7222,25996.013 6585.8022,26090.058 6539.9625,26162.456 C 6494.4857,26234.855 6435.3664,26271.054 6362.6046,26271.054 C 6288.7507,26271.054 6229.4495,26235.583 6184.7009,26164.639 C 6139.9521,26093.696 6117.5777,25999.651 6117.5778,25882.504 C 6117.5777,25766.812 6140.6797,25672.767 6186.8838,25600.368 C 6233.0877,25527.607 6293.1164,25491.226 6366.9703,25491.225 M 6368.0617,25594.911 L 6362.6046,25594.911 C 6320.7660,25594.912 6287.4774,25620.742 6262.7384,25672.403 C 6238.3629,25723.701 6226.1752,25793.371 6226.1754,25881.412 C 6226.1752,25971.638 6238.1810,26042.399 6262.1927,26093.696 C 6286.2040,26144.994 6319.3108,26170.642 6361.5131,26170.642 C 6403.7149,26170.642 6437.0036,26144.994 6461.3793,26093.696 C 6485.7542,26042.399 6497.9419,25972.729 6497.9423,25884.687 C 6497.9419,25796.281 6486.1180,25725.884 6462.4707,25673.494 C 6439.1864,25621.106 6407.7168,25594.912 6368.0617,25594.911"
   style="font-size:1117.6277px;font-weight:normal;fill:#000000;font-family:Gill Sans MT"
   id="text1803" /><path
   d="M 6790.4146,25799.972 L 6743.3914,25744.538 C 6782.8959,25719.561 6817.4305,25689.360 6846.9954,25653.933 C 6876.5599,25618.251 6896.3122,25581.678 6906.2523,25544.212 C 6882.0396,25559.249 6853.6218,25566.768 6820.9988,25566.768 C 6780.2197,25566.768 6745.1754,25551.603 6715.8656,25521.274 C 6686.8105,25490.945 6672.2830,25454.498 6672.2831,25411.935 C 6672.2830,25367.588 6687.8300,25329.995 6718.9240,25299.156 C 6750.0179,25268.317 6787.9932,25252.898 6832.8502,25252.897 C 6883.3139,25252.898 6924.6026,25271.121 6956.7163,25307.566 C 6988.8294,25344.013 7004.8861,25390.781 7004.8864,25447.872 C 7004.8861,25512.608 6984.7515,25578.110 6944.4826,25644.375 C 6904.2131,25710.386 6852.8572,25762.252 6790.4146,25799.972 M 6921.1621,25468.134 C 6924.2203,25447.744 6925.7495,25434.491 6925.7498,25428.374 C 6925.7495,25397.535 6917.0840,25372.303 6899.7532,25352.678 C 6882.6768,25333.054 6860.6307,25323.241 6833.6148,25323.241 C 6808.8924,25323.241 6788.3755,25331.652 6772.0641,25348.473 C 6756.0073,25365.040 6747.9789,25385.939 6747.9790,25411.170 C 6747.9789,25434.364 6756.7719,25454.371 6774.3579,25471.192 C 6791.9437,25488.014 6812.9703,25496.424 6837.4378,25496.424 C 6865.9829,25496.424 6893.8910,25486.994 6921.1621,25468.134"
   style="font-size:782.95593px;font-style:normal;font-variant:normal;font-weight:normal;font-stretch:normal;text-align:start;line-height:125.00000%;writing-mode:lr-tb;text-anchor:start;fill:#000000;font-family:Gill Sans MT"
   id="text1805" /><path
   d="M 2627.2941,22417.661 L 2736.4375,22417.661 L 2736.4375,23180.027 L 2627.2941,23180.027 L 2627.2941,22417.661 M 3243.9539,22407.838 C 3313.8053,22407.839 3371.4693,22444.584 3416.9461,22518.073 C 3462.7858,22591.200 3485.7059,22684.153 3485.7064,22796.934 C 3485.7059,22912.626 3462.7858,23006.672 3416.9461,23079.070 C 3371.4693,23151.468 3312.3501,23187.667 3239.5882,23187.667 C 3165.7343,23187.667 3106.4332,23152.196 3061.6846,23081.253 C 3016.9357,23010.310 2994.5614,22916.265 2994.5614,22799.117 C 2994.5614,22683.426 3017.6634,22589.381 3063.8674,22516.982 C 3110.0713,22444.220 3170.1001,22407.839 3243.9539,22407.838 M 3245.0454,22511.524 L 3239.5882,22511.524 C 3197.7497,22511.525 3164.4610,22537.356 3139.7221,22589.016 C 3115.3466,22640.314 3103.1589,22709.984 3103.1590,22798.026 C 3103.1589,22888.251 3115.1646,22959.012 3139.1763,23010.309 C 3163.1877,23061.607 3196.2944,23087.256 3238.4968,23087.256 C 3280.6985,23087.256 3313.9872,23061.607 3338.3629,23010.309 C 3362.7378,22959.012 3374.9255,22889.343 3374.9259,22801.300 C 3374.9255,22712.894 3363.1017,22642.497 3339.4543,22590.108 C 3316.1701,22537.719 3284.7004,22511.525 3245.0454,22511.524"
   style="font-size:1117.6277px;font-weight:normal;fill:#000000;font-family:Gill Sans MT"
   id="text1807" /><path
   d="M 3550.3437,22499.822 L 3740.7304,22499.822 L 3740.7304,22574.371 L 3550.3437,22574.371 L 3550.3437,22499.822 M 3934.1756,22636.686 L 4137.5606,22636.686 L 4137.5606,22710.471 L 3799.6051,22710.471 L 3799.6051,22705.118 L 3831.7185,22667.270 C 3881.9275,22605.083 3921.8143,22552.325 3951.3792,22508.997 C 3981.1986,22465.670 4000.5686,22432.919 4009.4892,22410.745 C 4018.6643,22388.572 4023.2519,22366.653 4023.2521,22344.989 C 4023.2519,22314.915 4014.7138,22290.830 3997.6379,22272.734 C 3980.5615,22254.384 3957.8782,22245.209 3929.5880,22245.208 C 3908.1789,22245.209 3887.0248,22251.580 3866.1257,22264.323 C 3845.4813,22276.812 3826.8759,22294.526 3810.3095,22317.464 L 3810.3095,22220.359 C 3851.8530,22186.462 3894.6709,22169.513 3938.7632,22169.512 C 3985.4040,22169.513 4023.7616,22185.060 4053.8364,22216.153 C 4084.1654,22247.248 4099.3301,22286.752 4099.3304,22334.667 C 4099.3301,22356.076 4095.5070,22379.015 4087.8613,22403.482 C 4080.4698,22427.694 4067.2167,22455.730 4048.1018,22487.588 C 4028.9864,22519.192 3996.4907,22562.392 3950.6146,22617.189 L 3934.1756,22636.686 M 4202.5521,22176.394 L 4548.1538,22176.394 L 4306.1561,22716.588 L 4238.1063,22687.915 L 4433.8452,22249.414 L 4202.5521,22249.414 L 4202.5521,22176.394"
   style="font-size:782.95593px;font-style:normal;font-variant:normal;font-weight:normal;font-stretch:normal;text-align:start;line-height:125.00000%;writing-mode:lr-tb;text-anchor:start;fill:#000000;font-family:Gill Sans MT"
   id="text1809" /><path
   d="M 2627.2941,19520.550 L 2736.4375,19520.550 L 2736.4375,20282.916 L 2627.2941,20282.916 L 2627.2941,19520.550 M 3243.9539,19510.727 C 3313.8053,19510.728 3371.4693,19547.473 3416.9461,19620.962 C 3462.7858,19694.088 3485.7059,19787.042 3485.7064,19899.823 C 3485.7059,20015.515 3462.7858,20109.560 3416.9461,20181.958 C 3371.4693,20254.357 3312.3501,20290.556 3239.5882,20290.556 C 3165.7343,20290.556 3106.4332,20255.084 3061.6846,20184.141 C 3016.9357,20113.198 2994.5614,20019.153 2994.5614,19902.006 C 2994.5614,19786.314 3017.6634,19692.269 3063.8674,19619.870 C 3110.0713,19547.109 3170.1001,19510.728 3243.9539,19510.727 M 3245.0454,19614.413 L 3239.5882,19614.413 C 3197.7497,19614.414 3164.4610,19640.244 3139.7221,19691.905 C 3115.3466,19743.203 3103.1589,19812.873 3103.1590,19900.914 C 3103.1589,19991.140 3115.1646,20061.901 3139.1763,20113.198 C 3163.1877,20164.496 3196.2944,20190.144 3238.4968,20190.144 C 3280.6985,20190.144 3313.9872,20164.496 3338.3629,20113.198 C 3362.7378,20061.901 3374.9255,19992.231 3374.9259,19904.189 C 3374.9255,19815.783 3363.1017,19745.386 3339.4543,19692.996 C 3316.1701,19640.608 3284.7004,19614.414 3245.0454,19614.413"
   style="font-size:1117.6277px;font-weight:normal;fill:#000000;font-family:Gill Sans MT"
   id="text1811" /><path
   d="M 3550.3437,19602.709 L 3740.7304,19602.709 L 3740.7304,19677.258 L 3550.3437,19677.258 L 3550.3437,19602.709 M 3934.1756,19739.573 L 4137.5606,19739.573 L 4137.5606,19813.357 L 3799.6051,19813.357 L 3799.6051,19808.005 L 3831.7185,19770.157 C 3881.9275,19707.969 3921.8143,19655.212 3951.3792,19611.884 C 3981.1986,19568.557 4000.5686,19535.806 4009.4892,19513.632 C 4018.6643,19491.459 4023.2519,19469.540 4023.2521,19447.876 C 4023.2519,19417.802 4014.7138,19393.717 3997.6379,19375.621 C 3980.5615,19357.271 3957.8782,19348.095 3929.5880,19348.095 C 3908.1789,19348.095 3887.0248,19354.467 3866.1257,19367.210 C 3845.4813,19379.699 3826.8759,19397.412 3810.3095,19420.350 L 3810.3095,19323.245 C 3851.8530,19289.348 3894.6709,19272.400 3938.7632,19272.399 C 3985.4040,19272.400 4023.7616,19287.947 4053.8364,19319.040 C 4084.1654,19350.134 4099.3301,19389.639 4099.3304,19437.554 C 4099.3301,19458.963 4095.5070,19481.901 4087.8613,19506.368 C 4080.4698,19530.581 4067.2167,19558.617 4048.1018,19590.475 C 4028.9864,19622.079 3996.4907,19665.279 3950.6146,19720.076 L 3934.1756,19739.573 M 4442.2559,19272.399 L 4473.6047,19272.399 L 4473.6047,19572.124 L 4533.2439,19572.124 L 4533.2439,19637.116 L 4473.6047,19637.116 L 4473.6047,19813.357 L 4399.0557,19813.357 L 4399.0557,19637.116 L 4173.1148,19637.116 L 4173.1148,19604.238 L 4442.2559,19272.399 M 4399.0557,19572.124 L 4399.0557,19417.292 L 4275.5719,19572.124 L 4399.0557,19572.124"
   style="font-size:782.95593px;font-style:normal;font-variant:normal;font-weight:normal;font-stretch:normal;text-align:start;line-height:125.00000%;writing-mode:lr-tb;text-anchor:start;fill:#000000;font-family:Gill Sans MT"
   id="text1813" /><path
   d="M 2627.2941,16625.419 L 2736.4375,16625.419 L 2736.4375,17387.785 L 2627.2941,17387.785 L 2627.2941,16625.419 M 3243.9539,16615.596 C 3313.8053,16615.597 3371.4693,16652.342 3416.9461,16725.831 C 3462.7858,16798.957 3485.7059,16891.911 3485.7064,17004.692 C 3485.7059,17120.384 3462.7858,17214.429 3416.9461,17286.828 C 3371.4693,17359.226 3312.3501,17395.425 3239.5882,17395.425 C 3165.7343,17395.425 3106.4332,17359.954 3061.6846,17289.010 C 3016.9357,17218.067 2994.5614,17124.022 2994.5614,17006.875 C 2994.5614,16891.184 3017.6634,16797.138 3063.8674,16724.739 C 3110.0713,16651.978 3170.1001,16615.597 3243.9539,16615.596 M 3245.0454,16719.282 L 3239.5882,16719.282 C 3197.7497,16719.283 3164.4610,16745.113 3139.7221,16796.774 C 3115.3466,16848.072 3103.1589,16917.742 3103.1590,17005.784 C 3103.1589,17096.009 3115.1646,17166.770 3139.1763,17218.067 C 3163.1877,17269.365 3196.2944,17295.013 3238.4968,17295.013 C 3280.6985,17295.013 3313.9872,17269.365 3338.3629,17218.067 C 3362.7378,17166.770 3374.9255,17097.100 3374.9259,17009.058 C 3374.9255,16920.652 3363.1017,16850.255 3339.4543,16797.865 C 3316.1701,16745.477 3284.7004,16719.283 3245.0454,16719.282"
   style="font-size:1117.6277px;font-weight:normal;fill:#000000;font-family:Gill Sans MT"
   id="text1815" /><path
   d="M 3550.3437,16707.576 L 3740.7304,16707.576 L 3740.7304,16782.125 L 3550.3437,16782.125 L 3550.3437,16707.576 M 3934.1756,16844.440 L 4137.5606,16844.440 L 4137.5606,16918.225 L 3799.6051,16918.225 L 3799.6051,16912.872 L 3831.7185,16875.024 C 3881.9275,16812.837 3921.8143,16760.079 3951.3792,16716.751 C 3981.1986,16673.424 4000.5686,16640.673 4009.4892,16618.499 C 4018.6643,16596.326 4023.2519,16574.407 4023.2521,16552.743 C 4023.2519,16522.669 4014.7138,16498.584 3997.6379,16480.488 C 3980.5615,16462.138 3957.8782,16452.963 3929.5880,16452.962 C 3908.1789,16452.963 3887.0248,16459.334 3866.1257,16472.077 C 3845.4813,16484.566 3826.8759,16502.280 3810.3095,16525.217 L 3810.3095,16428.113 C 3851.8530,16394.216 3894.6709,16377.267 3938.7632,16377.266 C 3985.4040,16377.267 4023.7616,16392.814 4053.8364,16423.907 C 4084.1654,16455.002 4099.3301,16494.506 4099.3304,16542.421 C 4099.3301,16563.830 4095.5070,16586.768 4087.8613,16611.236 C 4080.4698,16635.448 4067.2167,16663.484 4048.1018,16695.342 C 4028.9864,16726.946 3996.4907,16770.146 3950.6146,16824.943 L 3934.1756,16844.440 M 4322.5952,16384.148 L 4399.0557,16384.148 L 4399.0557,16918.225 L 4322.5952,16918.225 L 4322.5952,16384.148"
   style="font-size:782.95593px;font-style:normal;font-variant:normal;font-weight:normal;font-stretch:normal;text-align:start;line-height:125.00000%;writing-mode:lr-tb;text-anchor:start;fill:#000000;font-family:Gill Sans MT"
   id="text1817" /><path
   d="M 2627.2941,13728.304 L 2736.4375,13728.304 L 2736.4375,14490.670 L 2627.2941,14490.670 L 2627.2941,13728.304 M 3243.9539,13718.481 C 3313.8053,13718.482 3371.4693,13755.227 3416.9461,13828.716 C 3462.7858,13901.842 3485.7059,13994.796 3485.7064,14107.577 C 3485.7059,14223.269 3462.7858,14317.314 3416.9461,14389.712 C 3371.4693,14462.111 3312.3501,14498.310 3239.5882,14498.310 C 3165.7343,14498.310 3106.4332,14462.838 3061.6846,14391.895 C 3016.9357,14320.952 2994.5614,14226.907 2994.5614,14109.760 C 2994.5614,13994.068 3017.6634,13900.023 3063.8674,13827.624 C 3110.0713,13754.863 3170.1001,13718.482 3243.9539,13718.481 M 3245.0454,13822.167 L 3239.5882,13822.167 C 3197.7497,13822.168 3164.4610,13847.998 3139.7221,13899.659 C 3115.3466,13950.957 3103.1589,14020.626 3103.1590,14108.668 C 3103.1589,14198.894 3115.1646,14269.655 3139.1763,14320.952 C 3163.1877,14372.250 3196.2944,14397.898 3238.4968,14397.898 C 3280.6985,14397.898 3313.9872,14372.250 3338.3629,14320.952 C 3362.7378,14269.655 3374.9255,14199.985 3374.9259,14111.943 C 3374.9255,14023.537 3363.1017,13953.140 3339.4543,13900.750 C 3316.1701,13848.362 3284.7004,13822.168 3245.0454,13822.167"
   style="font-size:1117.6277px;font-weight:normal;fill:#000000;font-family:Gill Sans MT"
   id="text1819" /><path
   d="M 3550.3437,13810.463 L 3740.7304,13810.463 L 3740.7304,13885.012 L 3550.3437,13885.012 L 3550.3437,13810.463 M 3931.1172,13487.034 L 4007.5777,13487.034 L 4007.5777,14021.111 L 3931.1172,14021.111 L 3931.1172,13487.034 M 4201.7875,13630.398 C 4201.7875,13588.600 4217.4619,13553.173 4248.8107,13524.118 C 4280.1594,13494.808 4318.5171,13480.154 4363.8838,13480.153 C 4408.4856,13480.154 4446.0786,13494.681 4476.6631,13523.736 C 4507.5019,13552.536 4522.9214,13588.090 4522.9218,13630.398 C 4522.9214,13678.059 4500.7479,13717.436 4456.4011,13748.530 C 4505.8452,13777.075 4530.5675,13819.128 4530.5678,13874.689 C 4530.5675,13918.782 4514.5108,13955.228 4482.3977,13984.028 C 4450.2840,14012.828 4409.7599,14027.228 4360.8254,14027.228 C 4312.4003,14027.228 4271.7488,14012.573 4238.8709,13983.263 C 4205.9928,13953.699 4189.5538,13917.253 4189.5538,13873.925 C 4189.5538,13819.638 4214.7857,13777.840 4265.2498,13748.530 C 4242.5664,13730.179 4226.2548,13711.956 4216.3150,13693.860 C 4206.6300,13675.510 4201.7875,13654.356 4201.7875,13630.398 M 4446.8435,13632.692 C 4446.8433,13609.499 4438.8149,13590.384 4422.7585,13575.346 C 4406.9564,13560.310 4386.8218,13552.791 4362.3546,13552.791 C 4337.6322,13552.791 4317.3702,13560.182 4301.5685,13574.964 C 4285.7665,13589.747 4277.8656,13608.735 4277.8657,13631.927 C 4277.8656,13654.101 4286.1488,13673.089 4302.7154,13688.890 C 4319.5366,13704.692 4339.6712,13712.593 4363.1192,13712.593 C 4386.3121,13712.593 4406.0643,13704.820 4422.3762,13689.273 C 4438.6875,13673.471 4446.8433,13654.611 4446.8435,13632.692 M 4453.3427,13877.748 L 4453.3427,13870.102 C 4453.3424,13845.635 4444.5494,13825.755 4426.9638,13810.463 C 4409.6325,13794.916 4387.0767,13787.142 4359.2962,13787.142 C 4332.0251,13787.142 4309.7242,13794.916 4292.3932,13810.463 C 4275.3169,13826.010 4266.7789,13846.144 4266.7790,13870.866 C 4266.7789,13895.589 4275.5718,13915.723 4293.1578,13931.270 C 4310.7436,13946.817 4333.5543,13954.591 4361.5900,13954.591 C 4388.3510,13954.591 4410.2697,13947.454 4427.3461,13933.182 C 4444.6769,13918.909 4453.3424,13900.431 4453.3427,13877.748"
   style="font-size:782.95593px;font-style:normal;font-variant:normal;font-weight:normal;font-stretch:normal;text-align:start;line-height:125.00000%;writing-mode:lr-tb;text-anchor:start;fill:#000000;font-family:Gill Sans MT"
   id="text1821" /><path
   d="M 2627.2941,10833.173 L 2736.4375,10833.173 L 2736.4375,11595.539 L 2627.2941,11595.539 L 2627.2941,10833.173 M 3243.9539,10823.350 C 3313.8053,10823.351 3371.4693,10860.096 3416.9461,10933.585 C 3462.7858,11006.711 3485.7059,11099.665 3485.7064,11212.446 C 3485.7059,11328.138 3462.7858,11422.183 3416.9461,11494.581 C 3371.4693,11566.980 3312.3501,11603.179 3239.5882,11603.179 C 3165.7343,11603.179 3106.4332,11567.708 3061.6846,11496.764 C 3016.9357,11425.821 2994.5614,11331.776 2994.5614,11214.629 C 2994.5614,11098.937 3017.6634,11004.892 3063.8674,10932.493 C 3110.0713,10859.732 3170.1001,10823.351 3243.9539,10823.350 M 3245.0454,10927.036 L 3239.5882,10927.036 C 3197.7497,10927.037 3164.4610,10952.867 3139.7221,11004.528 C 3115.3466,11055.826 3103.1589,11125.496 3103.1590,11213.537 C 3103.1589,11303.763 3115.1646,11374.524 3139.1763,11425.821 C 3163.1877,11477.119 3196.2944,11502.767 3238.4968,11502.767 C 3280.6985,11502.767 3313.9872,11477.119 3338.3629,11425.821 C 3362.7378,11374.524 3374.9255,11304.854 3374.9259,11216.812 C 3374.9255,11128.406 3363.1017,11058.009 3339.4543,11005.619 C 3316.1701,10953.231 3284.7004,10927.037 3245.0454,10927.036"
   style="font-size:1117.6277px;font-weight:normal;fill:#000000;font-family:Gill Sans MT"
   id="text1823" /><path
   d="M 3550.3437,10915.332 L 3740.7304,10915.332 L 3740.7304,10989.881 L 3550.3437,10989.881 L 3550.3437,10915.332 M 3931.1172,10591.904 L 4007.5777,10591.904 L 4007.5777,11125.980 L 3931.1172,11125.980 L 3931.1172,10591.904 M 4243.4585,10591.904 L 4480.4862,10591.904 L 4480.4862,10659.953 L 4313.0376,10659.953 L 4313.0376,10794.906 C 4318.3897,10794.397 4323.8693,10794.142 4329.4766,10794.142 C 4381.2147,10794.142 4423.7777,10809.944 4457.1657,10841.547 C 4490.5532,10872.896 4507.2470,10912.911 4507.2474,10961.590 C 4507.2470,11011.800 4490.6806,11052.706 4457.5480,11084.309 C 4424.6697,11115.658 4381.9793,11131.333 4329.4766,11131.333 C 4286.1488,11131.333 4244.0956,11120.883 4203.3167,11099.984 L 4203.3167,11021.230 C 4241.8018,11046.207 4279.3948,11058.695 4316.0960,11058.695 C 4348.2093,11058.695 4375.0979,11049.393 4396.7619,11030.787 C 4418.6803,11011.927 4429.6396,10988.861 4429.6399,10961.590 C 4429.6396,10933.300 4417.7883,10909.725 4394.0858,10890.864 C 4370.3828,10871.749 4340.8181,10862.192 4305.3915,10862.192 C 4275.0621,10862.192 4254.4178,10864.741 4243.4585,10869.838 L 4243.4585,10591.904"
   style="font-size:782.95593px;font-style:normal;font-variant:normal;font-weight:normal;font-stretch:normal;text-align:start;line-height:125.00000%;writing-mode:lr-tb;text-anchor:start;fill:#000000;font-family:Gill Sans MT"
   id="text1825" /><path
   d="M 2627.2941,7936.0596 L 2736.4375,7936.0596 L 2736.4375,8698.4258 L 2627.2941,8698.4258 L 2627.2941,7936.0596 M 3243.9539,7926.2367 C 3313.8053,7926.2375 3371.4693,7962.9824 3416.9461,8036.4715 C 3462.7858,8109.5981 3485.7059,8202.5518 3485.7064,8315.3327 C 3485.7059,8431.0249 3462.7858,8525.0700 3416.9461,8597.4682 C 3371.4693,8669.8666 3312.3501,8706.0658 3239.5882,8706.0658 C 3165.7343,8706.0658 3106.4332,8670.5943 3061.6846,8599.6511 C 3016.9357,8528.7081 2994.5614,8434.6630 2994.5614,8317.5156 C 2994.5614,8201.8241 3017.6634,8107.7791 3063.8674,8035.3801 C 3110.0713,7962.6186 3170.1001,7926.2375 3243.9539,7926.2367 M 3245.0454,8029.9229 L 3239.5882,8029.9229 C 3197.7497,8029.9236 3164.4610,8055.7541 3139.7221,8107.4147 C 3115.3466,8158.7126 3103.1589,8228.3823 3103.1590,8316.4241 C 3103.1589,8406.6496 3115.1646,8477.4108 3139.1763,8528.7079 C 3163.1877,8580.0054 3196.2944,8605.6540 3238.4968,8605.6540 C 3280.6985,8605.6540 3313.9872,8580.0054 3338.3629,8528.7079 C 3362.7378,8477.4108 3374.9255,8407.7410 3374.9259,8319.6984 C 3374.9255,8231.2928 3363.1017,8160.8954 3339.4543,8108.5061 C 3316.1701,8056.1179 3284.7004,8029.9236 3245.0454,8029.9229"
   style="font-size:1117.6277px;font-weight:normal;fill:#000000;font-family:Gill Sans MT"
   id="text1827" /><path
   d="M 3550.3437,8018.2184 L 3740.7304,8018.2184 L 3740.7304,8092.7674 L 3550.3437,8092.7674 L 3550.3437,8018.2184 M 3931.1172,7694.7903 L 4007.5777,7694.7903 L 4007.5777,8228.8672 L 3931.1172,8228.8672 L 3931.1172,7694.7903 M 4325.6536,8155.0828 L 4529.0386,8155.0828 L 4529.0386,8228.8672 L 4191.0830,8228.8672 L 4191.0830,8223.5149 L 4223.1965,8185.6670 C 4273.4054,8123.4792 4313.2923,8070.7215 4342.8572,8027.3937 C 4372.6766,7984.0663 4392.0466,7951.3157 4400.9672,7929.1419 C 4410.1422,7906.9686 4414.7299,7885.0500 4414.7301,7863.3858 C 4414.7299,7833.3117 4406.1918,7809.2267 4389.1158,7791.1306 C 4372.0394,7772.7805 4349.3562,7763.6053 4321.0659,7763.6048 C 4299.6569,7763.6053 4278.5028,7769.9770 4257.6037,7782.7199 C 4236.9593,7795.2089 4218.3539,7812.9223 4201.7875,7835.8600 L 4201.7875,7738.7551 C 4243.3310,7704.8581 4286.1488,7687.9094 4330.2412,7687.9089 C 4376.8819,7687.9094 4415.2396,7703.4564 4445.3143,7734.5498 C 4475.6434,7765.6442 4490.8080,7805.1488 4490.8083,7853.0636 C 4490.8080,7874.4729 4486.9850,7897.4111 4479.3393,7921.8781 C 4471.9478,7946.0909 4458.6946,7974.1264 4439.5798,8005.9847 C 4420.4644,8037.5886 4387.9687,8080.7888 4342.0926,8135.5853 L 4325.6536,8155.0828"
   style="font-size:782.95593px;font-style:normal;font-variant:normal;font-weight:normal;font-stretch:normal;text-align:start;line-height:125.00000%;writing-mode:lr-tb;text-anchor:start;fill:#000000;font-family:Gill Sans MT"
   id="text1829" /><path
   d="M 2627.2941,5038.9468 L 2736.4375,5038.9468 L 2736.4375,5801.3130 L 2627.2941,5801.3130 L 2627.2941,5038.9468 M 3243.9539,5029.1239 C 3313.8053,5029.1247 3371.4693,5065.8696 3416.9461,5139.3587 C 3462.7858,5212.4853 3485.7059,5305.4390 3485.7064,5418.2199 C 3485.7059,5533.9121 3462.7858,5627.9572 3416.9461,5700.3554 C 3371.4693,5772.7538 3312.3501,5808.9530 3239.5882,5808.9530 C 3165.7343,5808.9530 3106.4332,5773.4815 3061.6846,5702.5383 C 3016.9357,5631.5953 2994.5614,5537.5502 2994.5614,5420.4028 C 2994.5614,5304.7113 3017.6634,5210.6663 3063.8674,5138.2673 C 3110.0713,5065.5058 3170.1001,5029.1247 3243.9539,5029.1239 M 3245.0454,5132.8101 L 3239.5882,5132.8101 C 3197.7497,5132.8108 3164.4610,5158.6413 3139.7221,5210.3019 C 3115.3466,5261.5998 3103.1589,5331.2695 3103.1590,5419.3113 C 3103.1589,5509.5368 3115.1646,5580.2980 3139.1763,5631.5951 C 3163.1877,5682.8926 3196.2944,5708.5413 3238.4968,5708.5412 C 3280.6985,5708.5413 3313.9872,5682.8926 3338.3629,5631.5951 C 3362.7378,5580.2980 3374.9255,5510.6282 3374.9259,5422.5856 C 3374.9255,5334.1800 3363.1017,5263.7826 3339.4543,5211.3933 C 3316.1701,5159.0051 3284.7004,5132.8108 3245.0454,5132.8101"
   style="font-size:1117.6277px;font-weight:normal;fill:#000000;font-family:Gill Sans MT"
   id="text1831" /><path
   d="M 3550.3437,5121.1056 L 3740.7304,5121.1056 L 3740.7304,5195.6546 L 3550.3437,5195.6546 L 3550.3437,5121.1056 M 3919.2658,5337.8712 L 3872.2426,5282.4373 C 3911.7470,5257.4603 3946.2817,5227.2584 3975.8466,5191.8316 C 4005.4111,5156.1502 4025.1634,5119.5766 4035.1035,5082.1107 C 4010.8908,5097.1482 3982.4730,5104.6668 3949.8500,5104.6666 C 3909.0709,5104.6668 3874.0266,5089.5022 3844.7168,5059.1726 C 3815.6617,5028.8435 3801.1342,4992.3974 3801.1343,4949.8340 C 3801.1342,4905.4873 3816.6812,4867.8942 3847.7752,4837.0547 C 3878.8690,4806.2161 3916.8444,4790.7966 3961.7014,4790.7961 C 4012.1651,4790.7966 4053.4538,4809.0197 4085.5675,4845.4654 C 4117.6806,4881.9120 4133.7373,4928.6803 4133.7376,4985.7704 C 4133.7373,5050.5073 4113.6027,5116.0085 4073.3338,5182.2740 C 4033.0643,5248.2851 3981.7084,5300.1507 3919.2658,5337.8712 M 4050.0133,5006.0325 C 4053.0715,4985.6434 4054.6007,4972.3902 4054.6010,4966.2730 C 4054.6007,4935.4343 4045.9352,4910.2024 4028.6044,4890.5771 C 4011.5280,4870.9527 3989.4819,4861.1402 3962.4660,4861.1398 C 3937.7436,4861.1402 3917.2267,4869.5509 3900.9153,4886.3717 C 3884.8585,4902.9386 3876.8301,4923.8378 3876.8302,4949.0694 C 3876.8301,4972.2628 3885.6231,4992.2699 3903.2091,5009.0909 C 3920.7949,5025.9125 3941.8215,5034.3232 3966.2890,5034.3229 C 3994.8341,5034.3232 4022.7422,5024.8931 4050.0133,5006.0325"
   style="font-size:782.95593px;font-style:normal;font-variant:normal;font-weight:normal;font-stretch:normal;text-align:start;line-height:125.00000%;writing-mode:lr-tb;text-anchor:start;fill:#000000;font-family:Gill Sans MT"
   id="text1833" /><path
   d="M 2627.2941,2143.8152 L 2736.4375,2143.8152 L 2736.4375,2906.1814 L 2627.2941,2906.1814 L 2627.2941,2143.8152 M 3243.9539,2133.9923 C 3313.8053,2133.9931 3371.4693,2170.7380 3416.9461,2244.2271 C 3462.7858,2317.3537 3485.7059,2410.3074 3485.7064,2523.0883 C 3485.7059,2638.7805 3462.7858,2732.8256 3416.9461,2805.2238 C 3371.4693,2877.6223 3312.3501,2913.8214 3239.5882,2913.8214 C 3165.7343,2913.8214 3106.4332,2878.3499 3061.6846,2807.4067 C 3016.9357,2736.4637 2994.5614,2642.4186 2994.5614,2525.2712 C 2994.5614,2409.5797 3017.6634,2315.5347 3063.8674,2243.1357 C 3110.0713,2170.3742 3170.1001,2133.9931 3243.9539,2133.9923 M 3245.0454,2237.6785 L 3239.5882,2237.6785 C 3197.7497,2237.6792 3164.4610,2263.5097 3139.7221,2315.1703 C 3115.3466,2366.4682 3103.1589,2436.1379 3103.1590,2524.1797 C 3103.1589,2614.4052 3115.1646,2685.1664 3139.1763,2736.4635 C 3163.1877,2787.7610 3196.2944,2813.4097 3238.4968,2813.4096 C 3280.6985,2813.4097 3313.9872,2787.7610 3338.3629,2736.4635 C 3362.7378,2685.1664 3374.9255,2615.4966 3374.9259,2527.4540 C 3374.9255,2439.0484 3363.1017,2368.6510 3339.4543,2316.2617 C 3316.1701,2263.8735 3284.7004,2237.6792 3245.0454,2237.6785"
   style="font-size:1117.6277px;font-weight:normal;fill:#000000;font-family:Gill Sans MT"
   id="text1835" /><path
   d="M 3550.3437,2225.9743 L 3740.7304,2225.9743 L 3740.7304,2300.5233 L 3550.3437,2300.5233 L 3550.3437,2225.9743 M 4013.3123,1901.0170 L 4020.9583,1895.6647 L 4067.2170,1954.1570 C 4026.4377,1980.4089 3992.5403,2009.0816 3965.5244,2040.1751 C 3938.7631,2071.2695 3918.1188,2107.8431 3903.5914,2149.8960 C 3931.8816,2135.3688 3960.0446,2128.1051 3988.0803,2128.1048 C 4030.1333,2128.1051 4065.5600,2143.0149 4094.3604,2172.8342 C 4123.1602,2202.6540 4137.5603,2239.2276 4137.5606,2282.5551 C 4137.5603,2327.1571 4121.8859,2365.0051 4090.5374,2396.0990 C 4059.1883,2427.1929 4021.0855,2442.7399 3976.2289,2442.7399 C 3926.0197,2442.7399 3885.3682,2425.1540 3854.2743,2389.9821 C 3823.4352,2354.5555 3808.0157,2308.2969 3808.0157,2251.2062 C 3808.0157,2208.3886 3815.9166,2165.8256 3831.7185,2123.5171 C 3847.7751,2080.9545 3870.7133,2041.1950 3900.5330,2004.2387 C 3930.6073,1967.0284 3968.2004,1932.6212 4013.3123,1901.0170 M 3887.1524,2229.0327 C 3885.1133,2241.0117 3884.0938,2254.3923 3884.0940,2269.1745 C 3884.0938,2299.2491 3892.7594,2323.9713 3910.0905,2343.3412 C 3927.6763,2362.7113 3950.1047,2372.3963 3977.3758,2372.3962 C 4001.8430,2372.3963 4021.9776,2364.1130 4037.7796,2347.5465 C 4053.8361,2330.9802 4061.8644,2310.0810 4061.8647,2284.8489 C 4061.8644,2259.1073 4053.3263,2238.3356 4036.2504,2222.5335 C 4019.4289,2206.4771 3997.1279,2198.4487 3969.3475,2198.4485 C 3955.0746,2198.4487 3942.0764,2200.6151 3930.3526,2204.9476 C 3918.8834,2209.2806 3904.4833,2217.3089 3887.1524,2229.0327"
   style="font-size:782.95593px;font-style:normal;font-variant:normal;font-weight:normal;font-stretch:normal;text-align:start;line-height:125.00000%;writing-mode:lr-tb;text-anchor:start;fill:#000000;font-family:Gill Sans MT"
   id="text1837" /><path
   d="M 2627.2941,-753.29761 L 2736.4375,-753.29761 L 2736.4375,9.0685425 L 2627.2941,9.0685425 L 2627.2941,-753.29761 M 3243.9539,-763.12051 C 3313.8053,-763.11974 3371.4693,-726.37485 3416.9461,-652.88575 C 3462.7858,-579.75913 3485.7059,-486.80548 3485.7064,-374.02454 C 3485.7059,-258.33235 3462.7858,-164.28727 3416.9461,-91.889037 C 3371.4693,-19.490600 3312.3501,16.708568 3239.5882,16.708575 C 3165.7343,16.708568 3106.4332,-18.762978 3061.6846,-89.706170 C 3016.9357,-160.64916 2994.5614,-254.69424 2994.5614,-371.84167 C 2994.5614,-487.53311 3017.6634,-581.57818 3063.8674,-653.97718 C 3110.0713,-726.73866 3170.1001,-763.11974 3243.9539,-763.12051 M 3245.0454,-659.43435 L 3239.5882,-659.43435 C 3197.7497,-659.43368 3164.4610,-633.60312 3139.7221,-581.94258 C 3115.3466,-530.64468 3103.1589,-460.97492 3103.1590,-372.93311 C 3103.1589,-282.70766 3115.1646,-211.94648 3139.1763,-160.64933 C 3163.1877,-109.35185 3196.2944,-83.703194 3238.4968,-83.703287 C 3280.6985,-83.703194 3313.9872,-109.35185 3338.3629,-160.64933 C 3362.7378,-211.94648 3374.9255,-281.61623 3374.9259,-369.65881 C 3374.9255,-458.06444 3363.1017,-528.46181 3339.4543,-580.85115 C 3316.1701,-633.23930 3284.7004,-659.43368 3245.0454,-659.43435"
   style="font-size:1117.6277px;font-weight:normal;fill:#000000;font-family:Gill Sans MT"
   id="text1839" /><path
   d="M 3550.3437,-671.13875 L 3740.7304,-671.13875 L 3740.7304,-596.58972 L 3550.3437,-596.58972 L 3550.3437,-671.13875 M 3913.9136,-771.30206 L 3918.5012,-771.30206 C 3951.8888,-771.30175 3977.2482,-778.18319 3994.5794,-791.94640 C 4012.1651,-805.70895 4020.9581,-825.71611 4020.9583,-851.96793 C 4020.9581,-875.67028 4012.4200,-894.91283 3995.3440,-909.69563 C 3978.5225,-924.47754 3956.3490,-931.86872 3928.8234,-931.86919 C 3901.0426,-931.86872 3870.2035,-923.20320 3836.3061,-905.87261 L 3836.3061,-978.89242 C 3867.4000,-994.43887 3901.2975,-1002.2123 3937.9986,-1002.2129 C 3987.1880,-1002.2123 4025.9280,-989.34150 4054.2187,-963.60031 C 4082.7636,-937.85812 4097.0362,-902.68631 4097.0366,-858.08477 C 4097.0362,-831.06834 4091.5566,-808.25764 4080.5975,-789.65259 C 4069.6379,-771.30175 4052.1794,-755.49992 4028.2221,-742.24705 C 4049.1210,-734.09099 4064.4131,-724.02369 4074.0984,-712.04514 C 4083.7831,-700.32095 4091.3017,-686.04833 4096.6543,-669.22723 C 4102.0062,-652.40572 4104.6823,-634.56495 4104.6826,-615.70486 C 4104.6823,-569.06382 4089.1353,-530.45128 4058.0417,-499.86714 C 4026.9475,-469.53778 3987.6978,-454.37312 3940.2925,-454.37312 C 3899.7682,-454.37312 3860.6460,-464.18555 3822.9255,-483.81042 L 3822.9255,-567.15241 C 3863.1947,-541.92035 3902.3169,-529.30438 3940.2925,-529.30445 C 3966.0340,-529.30438 3986.6783,-536.95042 4002.2255,-552.24261 C 4018.0271,-567.53461 4025.9280,-587.79663 4025.9283,-613.02874 C 4025.9280,-634.18265 4019.4289,-652.66059 4006.4308,-668.46263 C 3998.7845,-677.38281 3990.2465,-683.88195 3980.8165,-687.96007 C 3971.6411,-692.29260 3951.6339,-696.37049 3920.7950,-700.19375 L 3913.9136,-700.95836 L 3913.9136,-771.30206"
   style="font-size:782.95593px;font-style:normal;font-variant:normal;font-weight:normal;font-stretch:normal;text-align:start;line-height:125.00000%;writing-mode:lr-tb;text-anchor:start;fill:#000000;font-family:Gill Sans MT"
   id="text1841" /><path
   d="M 2627.2941,-3648.4294 L 2736.4375,-3648.4294 L 2736.4375,-2886.0632 L 2627.2941,-2886.0632 L 2627.2941,-3648.4294 M 3243.9539,-3658.2523 C 3313.8053,-3658.2515 3371.4693,-3621.5066 3416.9461,-3548.0175 C 3462.7858,-3474.8909 3485.7059,-3381.9373 3485.7064,-3269.1563 C 3485.7059,-3153.4641 3462.7858,-3059.4190 3416.9461,-2987.0208 C 3371.4693,-2914.6224 3312.3501,-2878.4232 3239.5882,-2878.4232 C 3165.7343,-2878.4232 3106.4332,-2913.8948 3061.6846,-2984.8379 C 3016.9357,-3055.7809 2994.5614,-3149.8260 2994.5614,-3266.9734 C 2994.5614,-3382.6649 3017.6634,-3476.7100 3063.8674,-3549.1090 C 3110.0713,-3621.8704 3170.1001,-3658.2515 3243.9539,-3658.2523 M 3245.0454,-3554.5661 L 3239.5882,-3554.5661 C 3197.7497,-3554.5655 3164.4610,-3528.7349 3139.7221,-3477.0744 C 3115.3466,-3425.7765 3103.1589,-3356.1067 3103.1590,-3268.0649 C 3103.1589,-3177.8394 3115.1646,-3107.0783 3139.1763,-3055.7811 C 3163.1877,-3004.4836 3196.2944,-2978.8350 3238.4968,-2978.8351 C 3280.6985,-2978.8350 3313.9872,-3004.4836 3338.3629,-3055.7811 C 3362.7378,-3107.0783 3374.9255,-3176.7480 3374.9259,-3264.7906 C 3374.9255,-3353.1962 3363.1017,-3423.5936 3339.4543,-3475.9829 C 3316.1701,-3528.3711 3284.7004,-3554.5655 3245.0454,-3554.5661"
   style="font-size:1117.6277px;font-weight:normal;fill:#000000;font-family:Gill Sans MT"
   id="text1843" /><path
   d="M 3717.7923,-3896.5792 C 3766.7268,-3896.5786 3807.1234,-3870.8369 3838.9822,-3819.3540 C 3871.0953,-3768.1251 3887.1520,-3703.0062 3887.1524,-3623.9973 C 3887.1520,-3542.9490 3871.0953,-3477.0656 3838.9822,-3426.3468 C 3807.1234,-3375.6280 3765.7073,-3350.2686 3714.7339,-3350.2686 C 3662.9954,-3350.2686 3621.4519,-3375.1183 3590.1032,-3424.8176 C 3558.7543,-3474.5169 3543.0799,-3540.4003 3543.0799,-3622.4681 C 3543.0799,-3703.5160 3559.2641,-3769.3994 3591.6324,-3820.1186 C 3624.0006,-3871.0918 3666.0538,-3896.5786 3717.7923,-3896.5792 M 3718.5569,-3823.9417 L 3714.7339,-3823.9417 C 3685.4238,-3823.9412 3662.1034,-3805.8455 3644.7725,-3769.6547 C 3627.6962,-3733.7178 3619.1581,-3684.9106 3619.1582,-3623.2327 C 3619.1581,-3560.0252 3627.5687,-3510.4533 3644.3902,-3474.5170 C 3661.2113,-3438.5805 3684.4043,-3420.6122 3713.9693,-3420.6123 C 3743.5338,-3420.6122 3766.8542,-3438.5805 3783.9306,-3474.5170 C 3801.0066,-3510.4533 3809.5446,-3559.2606 3809.5449,-3620.9389 C 3809.5446,-3682.8716 3801.2614,-3732.1886 3784.6953,-3768.8901 C 3768.3834,-3805.5907 3746.3373,-3823.9412 3718.5569,-3823.9417"
   style="font-size:782.95593px;font-style:normal;font-variant:normal;font-weight:normal;font-stretch:normal;text-align:start;line-height:125.00000%;writing-mode:lr-tb;text-anchor:start;fill:#000000;font-family:Gill Sans MT"
   id="text1845" /><path
   d="M 2627.2941,-6545.5410 L 2736.4375,-6545.5410 L 2736.4375,-5783.1748 L 2627.2941,-5783.1748 L 2627.2941,-6545.5410 M 3243.9539,-6555.3639 C 3313.8053,-6555.3631 3371.4693,-6518.6182 3416.9461,-6445.1291 C 3462.7858,-6372.0025 3485.7059,-6279.0488 3485.7064,-6166.2679 C 3485.7059,-6050.5757 3462.7858,-5956.5306 3416.9461,-5884.1324 C 3371.4693,-5811.7339 3312.3501,-5775.5348 3239.5882,-5775.5348 C 3165.7343,-5775.5348 3106.4332,-5811.0063 3061.6846,-5881.9495 C 3016.9357,-5952.8925 2994.5614,-6046.9376 2994.5614,-6164.0850 C 2994.5614,-6279.7765 3017.6634,-6373.8215 3063.8674,-6446.2205 C 3110.0713,-6518.9820 3170.1001,-6555.3631 3243.9539,-6555.3639 M 3245.0454,-6451.6777 L 3239.5882,-6451.6777 C 3197.7497,-6451.6770 3164.4610,-6425.8465 3139.7221,-6374.1859 C 3115.3466,-6322.8880 3103.1589,-6253.2183 3103.1590,-6165.1765 C 3103.1589,-6074.9510 3115.1646,-6004.1898 3139.1763,-5952.8927 C 3163.1877,-5901.5952 3196.2944,-5875.9465 3238.4968,-5875.9466 C 3280.6985,-5875.9465 3313.9872,-5901.5952 3338.3629,-5952.8927 C 3362.7378,-6004.1898 3374.9255,-6073.8596 3374.9259,-6161.9022 C 3374.9255,-6250.3078 3363.1017,-6320.7052 3339.4543,-6373.0945 C 3316.1701,-6425.4827 3284.7004,-6451.6770 3245.0454,-6451.6777"
   style="font-size:1117.6277px;font-weight:normal;fill:#000000;font-family:Gill Sans MT"
   id="text1847" /><path
   d="M 3660.0646,-6563.5474 L 3664.6522,-6563.5474 C 3698.0398,-6563.5471 3723.3992,-6570.4286 3740.7304,-6584.1918 C 3758.3161,-6597.9543 3767.1091,-6617.9615 3767.1093,-6644.2133 C 3767.1091,-6667.9157 3758.5710,-6687.1582 3741.4950,-6701.9410 C 3724.6735,-6716.7229 3702.5000,-6724.1141 3674.9744,-6724.1146 C 3647.1936,-6724.1141 3616.3545,-6715.4486 3582.4571,-6698.1180 L 3582.4571,-6771.1378 C 3613.5510,-6786.6843 3647.4485,-6794.4577 3684.1496,-6794.4583 C 3733.3390,-6794.4577 3772.0790,-6781.5869 3800.3697,-6755.8457 C 3828.9146,-6730.1035 3843.1872,-6694.9317 3843.1876,-6650.3302 C 3843.1872,-6623.3137 3837.7076,-6600.5030 3826.7485,-6581.8980 C 3815.7889,-6563.5471 3798.3304,-6547.7453 3774.3731,-6534.4924 C 3795.2720,-6526.3364 3810.5641,-6516.2691 3820.2494,-6504.2905 C 3829.9341,-6492.5663 3837.4527,-6478.2937 3842.8053,-6461.4726 C 3848.1572,-6444.6511 3850.8333,-6426.8103 3850.8336,-6407.9502 C 3850.8333,-6361.3092 3835.2863,-6322.6967 3804.1927,-6292.1125 C 3773.0985,-6261.7832 3733.8488,-6246.6185 3686.4435,-6246.6185 C 3645.9192,-6246.6185 3606.7970,-6256.4309 3569.0765,-6276.0558 L 3569.0765,-6359.3978 C 3609.3457,-6334.1657 3648.4679,-6321.5498 3686.4435,-6321.5498 C 3712.1850,-6321.5498 3732.8293,-6329.1958 3748.3765,-6344.4880 C 3764.1781,-6359.7800 3772.0790,-6380.0420 3772.0793,-6405.2741 C 3772.0790,-6426.4280 3765.5799,-6444.9060 3752.5818,-6460.7080 C 3744.9355,-6469.6282 3736.3975,-6476.1273 3726.9675,-6480.2055 C 3717.7921,-6484.5380 3697.7849,-6488.6159 3666.9460,-6492.4391 L 3660.0646,-6493.2038 L 3660.0646,-6563.5474"
   style="font-size:782.95593px;font-style:normal;font-variant:normal;font-weight:normal;font-stretch:normal;text-align:start;line-height:125.00000%;writing-mode:lr-tb;text-anchor:start;fill:#000000;font-family:Gill Sans MT"
   id="text1849" /><path
   d="M 9350.8945,25501.048 L 9460.0378,25501.048 L 9460.0378,26263.414 L 9350.8945,26263.414 L 9350.8945,25501.048 M 9967.5543,25491.225 C 10037.406,25491.226 10095.070,25527.971 10140.546,25601.460 C 10186.386,25674.586 10209.306,25767.540 10209.307,25880.321 C 10209.306,25996.013 10186.386,26090.058 10140.546,26162.456 C 10095.070,26234.855 10035.950,26271.054 9963.1885,26271.054 C 9889.3347,26271.054 9830.0335,26235.583 9785.2849,26164.639 C 9740.5361,26093.696 9718.1617,25999.651 9718.1618,25882.504 C 9718.1617,25766.812 9741.2637,25672.767 9787.4678,25600.368 C 9833.6716,25527.607 9893.7004,25491.226 9967.5543,25491.225 M 9968.6457,25594.911 L 9963.1885,25594.911 C 9921.3500,25594.912 9888.0613,25620.742 9863.3224,25672.403 C 9838.9469,25723.701 9826.7592,25793.371 9826.7594,25881.412 C 9826.7592,25971.638 9838.7650,26042.399 9862.7767,26093.696 C 9886.7880,26144.994 9919.8948,26170.642 9962.0971,26170.642 C 10004.299,26170.642 10037.588,26144.994 10061.963,26093.696 C 10086.338,26042.399 10098.526,25972.729 10098.526,25884.687 C 10098.526,25796.281 10086.702,25725.884 10063.055,25673.494 C 10039.770,25621.106 10008.301,25594.912 9968.6457,25594.911"
   style="font-size:1117.6277px;font-weight:normal;fill:#000000;font-family:Gill Sans MT"
   id="text1851" /><path
   d="M 10400.869,25259.779 L 10477.330,25259.779 L 10477.330,25793.855 L 10400.869,25793.855 L 10400.869,25259.779 M 10792.347,25259.779 L 10868.808,25259.779 L 10868.808,25793.855 L 10792.347,25793.855 L 10792.347,25259.779"
   style="font-size:782.95593px;font-style:normal;font-variant:normal;font-weight:normal;font-stretch:normal;text-align:start;line-height:125.00000%;writing-mode:lr-tb;text-anchor:start;fill:#000000;font-family:Gill Sans MT"
   id="text1853" /><path
   d="M 13090.192,25501.048 L 13199.336,25501.048 L 13199.336,26263.414 L 13090.192,26263.414 L 13090.192,25501.048 M 13706.852,25491.225 C 13776.703,25491.226 13834.368,25527.971 13879.844,25601.460 C 13925.684,25674.586 13948.604,25767.540 13948.605,25880.321 C 13948.604,25996.013 13925.684,26090.058 13879.844,26162.456 C 13834.368,26234.855 13775.248,26271.054 13702.486,26271.054 C 13628.633,26271.054 13569.331,26235.583 13524.583,26164.639 C 13479.834,26093.696 13457.460,25999.651 13457.460,25882.504 C 13457.460,25766.812 13480.562,25672.767 13526.766,25600.368 C 13572.969,25527.607 13632.998,25491.226 13706.852,25491.225 M 13707.944,25594.911 L 13702.486,25594.911 C 13660.648,25594.912 13627.359,25620.742 13602.620,25672.403 C 13578.245,25723.701 13566.057,25793.371 13566.057,25881.412 C 13566.057,25971.638 13578.063,26042.399 13602.075,26093.696 C 13626.086,26144.994 13659.193,26170.642 13701.395,26170.642 C 13743.597,26170.642 13776.885,26144.994 13801.261,26093.696 C 13825.636,26042.399 13837.824,25972.729 13837.824,25884.687 C 13837.824,25796.281 13826.000,25725.884 13802.353,25673.494 C 13779.068,25621.106 13747.599,25594.912 13707.944,25594.911"
   style="font-size:1117.6277px;font-weight:normal;fill:#000000;font-family:Gill Sans MT"
   id="text1855" /><path
   d="M 14140.167,25259.779 L 14216.627,25259.779 L 14216.627,25793.855 L 14140.167,25793.855 L 14140.167,25259.779 M 14514.441,25483.043 L 14519.029,25483.043 C 14552.416,25483.044 14577.776,25476.162 14595.107,25462.399 C 14612.693,25448.636 14621.486,25428.629 14621.486,25402.378 C 14621.486,25378.675 14612.948,25359.433 14595.872,25344.650 C 14579.050,25329.868 14556.877,25322.477 14529.351,25322.476 C 14501.570,25322.477 14470.731,25331.142 14436.834,25348.473 L 14436.834,25275.453 C 14467.928,25259.907 14501.825,25252.133 14538.526,25252.133 C 14587.716,25252.133 14626.456,25265.004 14654.746,25290.745 C 14683.291,25316.487 14697.564,25351.659 14697.564,25396.261 C 14697.564,25423.277 14692.084,25446.088 14681.125,25464.693 C 14670.166,25483.044 14652.707,25498.846 14628.750,25512.098 C 14649.649,25520.254 14664.941,25530.322 14674.626,25542.300 C 14684.311,25554.024 14691.829,25568.297 14697.182,25585.118 C 14702.534,25601.940 14705.210,25619.780 14705.210,25638.641 C 14705.210,25685.282 14689.663,25723.894 14658.569,25754.478 C 14627.475,25784.808 14588.225,25799.972 14540.820,25799.972 C 14500.296,25799.972 14461.174,25790.160 14423.453,25770.535 L 14423.453,25687.193 C 14463.722,25712.425 14502.845,25725.041 14540.820,25725.041 C 14566.562,25725.041 14587.206,25717.395 14602.753,25702.103 C 14618.555,25686.811 14626.456,25666.549 14626.456,25641.317 C 14626.456,25620.163 14619.957,25601.685 14606.958,25585.883 C 14599.312,25576.963 14590.774,25570.463 14581.344,25566.385 C 14572.169,25562.053 14552.162,25557.975 14521.323,25554.152 L 14514.441,25553.387 L 14514.441,25483.043"
   style="font-size:782.95593px;font-style:normal;font-variant:normal;font-weight:normal;font-stretch:normal;text-align:start;line-height:125.00000%;writing-mode:lr-tb;text-anchor:start;fill:#000000;font-family:Gill Sans MT"
   id="text1857" /><path
   d="M 16829.489,25501.048 L 16938.633,25501.048 L 16938.633,26263.414 L 16829.489,26263.414 L 16829.489,25501.048 M 17446.149,25491.225 C 17516.000,25491.226 17573.664,25527.971 17619.141,25601.460 C 17664.981,25674.586 17687.901,25767.540 17687.901,25880.321 C 17687.901,25996.013 17664.981,26090.058 17619.141,26162.456 C 17573.664,26234.855 17514.545,26271.054 17441.783,26271.054 C 17367.929,26271.054 17308.628,26235.583 17263.880,26164.639 C 17219.131,26093.696 17196.756,25999.651 17196.756,25882.504 C 17196.756,25766.812 17219.858,25672.767 17266.063,25600.368 C 17312.266,25527.607 17372.295,25491.226 17446.149,25491.225 M 17447.240,25594.911 L 17441.783,25594.911 C 17399.945,25594.912 17366.656,25620.742 17341.917,25672.403 C 17317.542,25723.701 17305.354,25793.371 17305.354,25881.412 C 17305.354,25971.638 17317.360,26042.399 17341.371,26093.696 C 17365.383,26144.994 17398.490,26170.642 17440.692,26170.642 C 17482.894,26170.642 17516.182,26144.994 17540.558,26093.696 C 17564.933,26042.399 17577.121,25972.729 17577.121,25884.687 C 17577.121,25796.281 17565.297,25725.884 17541.649,25673.494 C 17518.365,25621.106 17486.896,25594.912 17447.240,25594.911"
   style="font-size:1117.6277px;font-weight:normal;fill:#000000;font-family:Gill Sans MT"
   id="text1859" /><path
   d="M 17879.463,25259.779 L 17955.923,25259.779 L 17955.923,25793.855 L 17879.463,25793.855 L 17879.463,25259.779 M 18191.804,25259.779 L 18428.832,25259.779 L 18428.832,25327.828 L 18261.383,25327.828 L 18261.383,25462.781 C 18266.735,25462.272 18272.215,25462.017 18277.822,25462.017 C 18329.560,25462.017 18372.123,25477.819 18405.511,25509.422 C 18438.899,25540.771 18455.593,25580.786 18455.593,25629.465 C 18455.593,25679.675 18439.026,25720.581 18405.894,25752.184 C 18373.015,25783.533 18330.325,25799.208 18277.822,25799.208 C 18234.494,25799.208 18192.441,25788.758 18151.662,25767.859 L 18151.662,25689.105 C 18190.147,25714.082 18227.740,25726.570 18264.442,25726.570 C 18296.555,25726.570 18323.443,25717.268 18345.107,25698.662 C 18367.026,25679.802 18377.985,25656.736 18377.985,25629.465 C 18377.985,25601.175 18366.134,25577.600 18342.431,25558.739 C 18318.728,25539.624 18289.164,25530.067 18253.737,25530.067 C 18223.408,25530.067 18202.763,25532.616 18191.804,25537.713 L 18191.804,25259.779"
   style="font-size:782.95593px;font-style:normal;font-variant:normal;font-weight:normal;font-stretch:normal;text-align:start;line-height:125.00000%;writing-mode:lr-tb;text-anchor:start;fill:#000000;font-family:Gill Sans MT"
   id="text1861" /><path
   d="M 20568.786,25501.048 L 20677.929,25501.048 L 20677.929,26263.414 L 20568.786,26263.414 L 20568.786,25501.048 M 21185.446,25491.225 C 21255.297,25491.226 21312.961,25527.971 21358.438,25601.460 C 21404.278,25674.586 21427.198,25767.540 21427.198,25880.321 C 21427.198,25996.013 21404.278,26090.058 21358.438,26162.456 C 21312.961,26234.855 21253.842,26271.054 21181.080,26271.054 C 21107.226,26271.054 21047.925,26235.583 21003.177,26164.639 C 20958.428,26093.696 20936.053,25999.651 20936.053,25882.504 C 20936.053,25766.812 20959.155,25672.767 21005.359,25600.368 C 21051.563,25527.607 21111.592,25491.226 21185.446,25491.225 M 21186.537,25594.911 L 21181.080,25594.911 C 21139.242,25594.912 21105.953,25620.742 21081.214,25672.403 C 21056.838,25723.701 21044.651,25793.371 21044.651,25881.412 C 21044.651,25971.638 21056.657,26042.399 21080.668,26093.696 C 21104.680,26144.994 21137.786,26170.642 21179.989,26170.642 C 21222.190,26170.642 21255.479,26144.994 21279.855,26093.696 C 21304.230,26042.399 21316.417,25972.729 21316.418,25884.687 C 21316.417,25796.281 21304.594,25725.884 21280.946,25673.494 C 21257.662,25621.106 21226.192,25594.912 21186.537,25594.911"
   style="font-size:1117.6277px;font-weight:normal;fill:#000000;font-family:Gill Sans MT"
   id="text1863" /><path
   d="M 21618.760,25259.779 L 21695.220,25259.779 L 21695.220,25793.855 L 21618.760,25793.855 L 21618.760,25259.779 M 21890.195,25259.779 L 22235.796,25259.779 L 21993.799,25799.972 L 21925.749,25771.300 L 22121.488,25332.798 L 21890.195,25332.798 L 21890.195,25259.779"
   style="font-size:782.95593px;font-style:normal;font-variant:normal;font-weight:normal;font-stretch:normal;text-align:start;line-height:125.00000%;writing-mode:lr-tb;text-anchor:start;fill:#000000;font-family:Gill Sans MT"
   id="text1865" /><path
   d="M 24308.083,25501.048 L 24417.226,25501.048 L 24417.226,26263.414 L 24308.083,26263.414 L 24308.083,25501.048 M 24924.743,25491.225 C 24994.594,25491.226 25052.258,25527.971 25097.735,25601.460 C 25143.575,25674.586 25166.495,25767.540 25166.495,25880.321 C 25166.495,25996.013 25143.575,26090.058 25097.735,26162.456 C 25052.258,26234.855 24993.139,26271.054 24920.377,26271.054 C 24846.523,26271.054 24787.222,26235.583 24742.473,26164.639 C 24697.725,26093.696 24675.350,25999.651 24675.350,25882.504 C 24675.350,25766.812 24698.452,25672.767 24744.656,25600.368 C 24790.860,25527.607 24850.889,25491.226 24924.743,25491.225 M 24925.834,25594.911 L 24920.377,25594.911 C 24878.539,25594.912 24845.250,25620.742 24820.511,25672.403 C 24796.135,25723.701 24783.948,25793.371 24783.948,25881.412 C 24783.948,25971.638 24795.953,26042.399 24819.965,26093.696 C 24843.976,26144.994 24877.083,26170.642 24919.286,26170.642 C 24961.487,26170.642 24994.776,26144.994 25019.152,26093.696 C 25043.527,26042.399 25055.714,25972.729 25055.715,25884.687 C 25055.714,25796.281 25043.890,25725.884 25020.243,25673.494 C 24996.959,25621.106 24965.489,25594.912 24925.834,25594.911"
   style="font-size:1117.6277px;font-weight:normal;fill:#000000;font-family:Gill Sans MT"
   id="text1867" /><path
   d="M 25358.058,25259.779 L 25434.519,25259.779 L 25434.519,25793.855 L 25358.058,25793.855 L 25358.058,25259.779 M 25737.685,25799.972 L 25690.662,25744.538 C 25730.166,25719.561 25764.701,25689.360 25794.266,25653.933 C 25823.830,25618.251 25843.583,25581.678 25853.523,25544.212 C 25829.310,25559.249 25800.892,25566.768 25768.269,25566.768 C 25727.490,25566.768 25692.446,25551.603 25663.136,25521.274 C 25634.081,25490.945 25619.553,25454.498 25619.554,25411.935 C 25619.553,25367.588 25635.100,25329.995 25666.194,25299.156 C 25697.288,25268.317 25735.264,25252.898 25780.121,25252.897 C 25830.584,25252.898 25871.873,25271.121 25903.987,25307.566 C 25936.100,25344.013 25952.157,25390.781 25952.157,25447.872 C 25952.157,25512.608 25932.022,25578.110 25891.753,25644.375 C 25851.484,25710.386 25800.128,25762.252 25737.685,25799.972 M 25868.433,25468.134 C 25871.491,25447.744 25873.020,25434.491 25873.020,25428.374 C 25873.020,25397.535 25864.354,25372.303 25847.024,25352.678 C 25829.947,25333.054 25807.901,25323.241 25780.885,25323.241 C 25756.163,25323.241 25735.646,25331.652 25719.335,25348.473 C 25703.278,25365.040 25695.249,25385.939 25695.249,25411.170 C 25695.249,25434.364 25704.042,25454.371 25721.628,25471.192 C 25739.214,25488.014 25760.241,25496.424 25784.708,25496.424 C 25813.253,25496.424 25841.161,25486.994 25868.433,25468.134"
   style="font-size:782.95593px;font-style:normal;font-variant:normal;font-weight:normal;font-stretch:normal;text-align:start;line-height:125.00000%;writing-mode:lr-tb;text-anchor:start;fill:#000000;font-family:Gill Sans MT"
   id="text1869" /><path
   d="M 28047.382,25501.048 L 28156.525,25501.048 L 28156.525,26263.414 L 28047.382,26263.414 L 28047.382,25501.048 M 28664.042,25491.225 C 28733.893,25491.226 28791.557,25527.971 28837.034,25601.460 C 28882.873,25674.586 28905.794,25767.540 28905.794,25880.321 C 28905.794,25996.013 28882.873,26090.058 28837.034,26162.456 C 28791.557,26234.855 28732.438,26271.054 28659.676,26271.054 C 28585.822,26271.054 28526.521,26235.583 28481.772,26164.639 C 28437.023,26093.696 28414.649,25999.651 28414.649,25882.504 C 28414.649,25766.812 28437.751,25672.767 28483.955,25600.368 C 28530.159,25527.607 28590.188,25491.226 28664.042,25491.225 M 28665.133,25594.911 L 28659.676,25594.911 C 28617.837,25594.912 28584.549,25620.742 28559.810,25672.403 C 28535.434,25723.701 28523.247,25793.371 28523.247,25881.412 C 28523.247,25971.638 28535.252,26042.399 28559.264,26093.696 C 28583.275,26144.994 28616.382,26170.642 28658.584,26170.642 C 28700.786,26170.642 28734.075,26144.994 28758.451,26093.696 C 28782.825,26042.399 28795.013,25972.729 28795.014,25884.687 C 28795.013,25796.281 28783.189,25725.884 28759.542,25673.494 C 28736.258,25621.106 28704.788,25594.912 28665.133,25594.911"
   style="font-size:1117.6277px;font-weight:normal;fill:#000000;font-family:Gill Sans MT"
   id="text1871" /><path
   d="M 29100.414,25720.071 L 29303.799,25720.071 L 29303.799,25793.855 L 28965.843,25793.855 L 28965.843,25788.503 L 28997.957,25750.655 C 29048.166,25688.467 29088.053,25635.710 29117.617,25592.382 C 29147.437,25549.055 29166.807,25516.304 29175.727,25494.130 C 29184.902,25471.957 29189.490,25450.038 29189.490,25428.374 C 29189.490,25398.300 29180.952,25374.215 29163.876,25356.119 C 29146.800,25337.769 29124.116,25328.594 29095.826,25328.593 C 29074.417,25328.594 29053.263,25334.965 29032.364,25347.708 C 29011.719,25360.197 28993.114,25377.911 28976.548,25400.848 L 28976.548,25303.743 C 29018.091,25269.846 29060.909,25252.898 29105.001,25252.897 C 29151.642,25252.898 29190.000,25268.445 29220.075,25299.538 C 29250.404,25330.632 29265.568,25370.137 29265.569,25418.052 C 29265.568,25439.461 29261.745,25462.399 29254.099,25486.866 C 29246.708,25511.079 29233.455,25539.115 29214.340,25570.973 C 29195.225,25602.577 29162.729,25645.777 29116.853,25700.574 L 29100.414,25720.071 M 29488.833,25259.779 L 29565.294,25259.779 L 29565.294,25793.855 L 29488.833,25793.855 L 29488.833,25259.779"
   style="font-size:782.95593px;font-style:normal;font-variant:normal;font-weight:normal;font-stretch:normal;text-align:start;line-height:125.00000%;writing-mode:lr-tb;text-anchor:start;fill:#000000;font-family:Gill Sans MT"
   id="text1873" />
<path
   d="M -9332.8782,321.23541 L -9345.4297,411.82440 L -9610.1024,411.82440 L -9643.9368,650.84837 L -9400.0014,650.84837 L -9413.6443,741.43736 L -9657.0340,741.43736 L -9705.0571,1083.6018 L -9807.1062,1083.6018 L -9696.3257,321.23541 L -9332.8782,321.23541 M -8778.4299,311.41250 L -8716.7639,311.41250 C -8762.2406,379.08209 -8795.3474,436.92802 -8816.0844,484.95045 C -8836.4581,532.97408 -8851.9200,588.09143 -8862.4703,650.30265 C -8872.6572,712.15093 -8877.7506,771.99781 -8877.7504,829.84348 C -8877.7506,1028.4845 -8824.0885,1198.3841 -8716.7639,1339.5430 L -8778.4299,1339.5430 L -8794.8014,1319.3515 C -8835.9123,1269.8730 -8866.4725,1229.3081 -8886.4819,1197.6566 C -8906.1278,1166.0050 -8925.7736,1124.8943 -8945.4193,1074.3246 C -8977.0710,993.55862 -8992.8967,910.97356 -8992.8967,826.56918 C -8992.8967,740.71008 -8977.0710,657.94311 -8945.4193,578.26803 C -8913.7679,498.23015 -8858.1048,409.27839 -8778.4299,311.41250 M -8220.1616,719.06297 L -8220.1616,1083.6018 L -8320.0278,1083.6018 L -8320.0278,804.19479 C -8320.0281,748.53201 -8327.4863,709.78616 -8342.4022,687.95711 C -8357.3188,665.76504 -8383.3312,654.66881 -8420.4397,654.66838 C -8441.1772,654.66881 -8460.2772,659.39835 -8477.7399,668.85702 C -8494.8393,678.31652 -8514.4850,695.05182 -8536.6773,719.06297 L -8536.6773,1083.6018 L -8635.9978,1083.6018 L -8635.9978,581.54233 L -8536.6773,581.54233 L -8536.6773,647.57407 C -8486.1078,597.00479 -8436.6295,571.71994 -8388.2424,571.71943 C -8324.5758,571.71994 -8275.2794,601.91624 -8240.3531,662.30842 C -8187.2372,601.18862 -8131.7560,570.62851 -8073.9095,570.62799 C -8025.1595,570.62851 -7985.1403,588.45524 -7953.8518,624.10824 C -7922.2010,659.76217 -7906.3752,714.15189 -7906.3744,787.27757 L -7906.3744,1083.6018 L -8005.6949,1083.6018 L -8005.6949,786.18614 C -8005.6956,744.34819 -8014.2451,712.33283 -8031.3436,690.13998 C -8048.4433,667.94791 -8073.0006,656.85168 -8105.0153,656.85125 C -8146.1266,656.85168 -8184.5086,677.58890 -8220.1616,719.06297"
   transform="matrix(2.648450e-14,-1.000000,1.000000,2.648450e-14,0.000000,0.000000)"
   style="font-size:1117.6281px;font-weight:normal;fill:#000000;font-family:Gill Sans MT"
   id="text1769" /><path
   d="M -7194.2047,1047.5845 L -7194.2047,940.62400 C -7166.1913,960.26993 -7137.6322,976.27761 -7108.5272,988.64708 C -7079.0586,1000.6529 -7054.3195,1006.6558 -7034.3097,1006.6557 C -7013.5727,1006.6558 -6995.7459,1001.5625 -6980.8294,991.37566 C -6965.9134,981.18905 -6958.4553,969.00139 -6958.4550,954.81264 C -6958.4553,940.26033 -6963.3668,928.25457 -6973.1894,918.79533 C -6982.6487,908.97260 -7003.3860,894.96588 -7035.4011,876.77513 C -7099.4320,841.12187 -7141.4522,810.74367 -7161.4617,785.64042 C -7181.1076,760.17396 -7190.9305,732.52434 -7190.9304,702.69146 C -7190.9305,664.12790 -7176.0142,632.65826 -7146.1816,608.28245 C -7115.9854,583.90760 -7077.2396,571.71994 -7029.9439,571.71943 C -6980.8297,571.71994 -6930.4419,585.54475 -6878.7804,613.19391 L -6878.7804,711.42293 C -6937.7181,675.76984 -6985.9230,657.94311 -7023.3953,657.94269 C -7042.6775,657.94311 -7058.3214,662.12694 -7070.3270,670.49417 C -7081.9691,678.49842 -7087.7901,689.23084 -7087.7899,702.69146 C -7087.7901,714.33379 -7082.5148,725.43002 -7071.9641,735.98019 C -7061.0500,746.53105 -7042.1318,759.26443 -7015.2096,774.18037 L -6979.7380,794.37189 C -6896.0618,841.66759 -6854.2235,894.05635 -6854.2231,951.53834 C -6854.2235,992.64909 -6870.4131,1026.4835 -6902.7919,1053.0417 C -6934.8076,1079.2361 -6976.1001,1092.3333 -7026.6696,1092.3333 C -7056.5023,1092.3333 -7083.0605,1089.2409 -7106.3443,1083.0561 C -7129.6283,1076.5075 -7158.9151,1064.6836 -7194.2047,1047.5845 M -6633.2078,581.54233 L -6633.2078,696.68858 L -6627.7507,687.95711 C -6579.7278,610.46579 -6531.7048,571.71994 -6483.6814,571.71943 C -6446.2092,571.71994 -6407.0996,590.63810 -6366.3523,628.47398 L -6418.7411,715.78867 C -6453.3035,683.04606 -6485.3189,666.67457 -6514.7873,666.67415 C -6546.8029,666.67457 -6574.6345,681.95463 -6598.2820,712.51437 C -6621.5661,743.07485 -6633.2080,779.27403 -6633.2078,821.11202 L -6633.2078,1083.6018 L -6733.0740,1083.6018 L -6733.0740,581.54233 L -6633.2078,581.54233 M -6011.0907,1047.5845 L -6011.0907,940.62400 C -5983.0773,960.26993 -5954.5182,976.27761 -5925.4132,988.64708 C -5895.9446,1000.6529 -5871.2055,1006.6558 -5851.1957,1006.6557 C -5830.4587,1006.6558 -5812.6319,1001.5625 -5797.7154,991.37566 C -5782.7994,981.18905 -5775.3413,969.00139 -5775.3410,954.81264 C -5775.3413,940.26033 -5780.2528,928.25457 -5790.0754,918.79533 C -5799.5347,908.97260 -5820.2719,894.96588 -5852.2871,876.77513 C -5916.3180,841.12187 -5958.3382,810.74367 -5978.3477,785.64042 C -5997.9936,760.17396 -6007.8164,732.52434 -6007.8164,702.69146 C -6007.8164,664.12790 -5992.9002,632.65826 -5963.0676,608.28245 C -5932.8714,583.90760 -5894.1256,571.71994 -5846.8299,571.71943 C -5797.7157,571.71994 -5747.3279,585.54475 -5695.6664,613.19391 L -5695.6664,711.42293 C -5754.6041,675.76984 -5802.8090,657.94311 -5840.2813,657.94269 C -5859.5635,657.94311 -5875.2074,662.12694 -5887.2130,670.49417 C -5898.8551,678.49842 -5904.6761,689.23084 -5904.6759,702.69146 C -5904.6761,714.33379 -5899.4008,725.43002 -5888.8501,735.98019 C -5877.9360,746.53105 -5859.0178,759.26443 -5832.0956,774.18037 L -5796.6240,794.37189 C -5712.9477,841.66759 -5671.1095,894.05635 -5671.1091,951.53834 C -5671.1095,992.64909 -5687.2991,1026.4835 -5719.6779,1053.0417 C -5751.6936,1079.2361 -5792.9861,1092.3333 -5843.5556,1092.3333 C -5873.3883,1092.3333 -5899.9465,1089.2409 -5923.2303,1083.0561 C -5946.5143,1076.5075 -5975.8011,1064.6836 -6011.0907,1047.5845 M -4820.8823,708.14863 L -4564.9411,708.14863 L -4564.9411,1031.2130 C -4658.8050,1071.9599 -4751.9406,1092.3333 -4844.3481,1092.3333 C -4970.5909,1092.3333 -5071.5484,1055.5884 -5147.2209,982.09848 C -5222.5299,908.24498 -5260.1844,817.29226 -5260.1843,709.24007 C -5260.1844,595.36764 -5221.0747,500.59492 -5142.8552,424.92160 C -5064.6360,349.24960 -4966.5890,311.41328 -4848.7138,311.41250 C -4805.7846,311.41328 -4765.0378,316.14282 -4726.4732,325.60114 C -4687.9099,334.69717 -4639.1592,351.61437 -4580.2211,376.35281 L -4580.2211,487.67904 C -4671.1746,434.92706 -4761.3997,408.55077 -4850.8967,408.55010 C -4934.2098,408.55077 -5004.4253,436.92802 -5061.5434,493.68192 C -5118.6619,550.43700 -5147.2211,620.10678 -5147.2209,702.69146 C -5147.2211,789.27883 -5118.6619,860.04004 -5061.5434,914.97531 C -5004.4253,969.91092 -4930.9355,997.37863 -4841.0738,997.37855 C -4797.4169,997.37863 -4745.2101,987.37384 -4684.4530,967.36412 L -4674.0844,964.08982 L -4674.0844,805.28623 L -4820.8823,805.28623 L -4820.8823,708.14863 M -3989.2098,841.30354 L -4342.2885,841.30354 C -4339.7420,889.32681 -4323.7343,927.52695 -4294.2655,955.90407 C -4264.4332,984.28144 -4226.0511,998.47007 -4179.1192,998.46998 C -4113.6336,998.47007 -4053.2410,978.09666 -3997.9412,937.34970 L -3997.9412,1034.4873 C -4028.5018,1054.8607 -4058.8800,1069.4132 -4089.0759,1078.1446 C -4118.9088,1086.8761 -4154.0166,1091.2418 -4194.3993,1091.2418 C -4249.6988,1091.2418 -4294.4476,1079.7818 -4328.6456,1056.8617 C -4362.8440,1033.9416 -4390.3117,1003.1996 -4411.0489,964.63554 C -4431.4223,925.70790 -4441.6091,880.77726 -4441.6090,829.84348 C -4441.6091,753.44346 -4419.9623,691.41371 -4376.6687,643.75405 C -4333.3753,595.73146 -4277.1665,571.71994 -4208.0422,571.71943 C -4141.4651,571.71994 -4088.3487,595.00383 -4048.6929,641.57118 C -4009.0379,688.13941 -3989.2103,750.53297 -3989.2098,828.75205 L -3989.2098,841.30354 M -4340.1057,781.82040 L -4087.4388,781.82040 C -4089.9859,742.16532 -4101.8097,711.60521 -4122.9104,690.13998 C -4144.0118,668.67553 -4172.3890,657.94311 -4208.0422,657.94269 C -4243.6959,657.94311 -4272.9827,668.67553 -4295.9026,690.13998 C -4318.4591,711.60521 -4333.1934,742.16532 -4340.1057,781.82040 M -3386.1927,321.23541 L -3277.5950,321.23541 L -3599.5679,1086.8761 L -3624.1252,1086.8761 L -3952.6467,321.23541 L -3842.9576,321.23541 L -3613.7566,856.58361 L -3386.1927,321.23541 M -3203.3777,1339.5430 L -3264.4979,1339.5430 C -3217.2026,1268.2358 -3183.5500,1207.6613 -3163.5403,1157.8193 C -3143.5309,1108.3409 -3128.6146,1053.9512 -3118.7916,994.64996 C -3108.9688,934.98507 -3104.0574,877.86677 -3104.0572,823.29488 C -3104.0574,759.99205 -3109.8784,698.68993 -3121.5201,639.38831 C -3132.7984,580.08759 -3149.8975,523.87881 -3172.8175,470.76182 C -3195.3739,417.28223 -3225.9340,364.16585 -3264.4979,311.41250 L -3203.3777,311.41250 L -3186.4604,331.60403 C -3145.7137,379.99162 -3115.5174,420.01081 -3095.8715,451.66173 C -3075.8620,483.31390 -3056.0343,524.60643 -3036.3883,575.53945 C -3004.7370,656.30596 -2988.9112,739.61865 -2988.9110,825.47775 C -2988.9112,907.69926 -3003.2818,986.82812 -3032.0226,1062.8646 C -3046.2115,1100.7009 -3064.2201,1138.3553 -3086.0485,1175.8279 C -3107.5136,1213.3004 -3146.6232,1267.8720 -3203.3777,1339.5430"
   transform="matrix(2.648450e-14,-1.000000,1.000000,2.648450e-14,0.000000,0.000000)"
   style="font-size:1117.6281px;font-weight:normal;fill:#000000;font-family:Gill Sans MT"
   id="text1771" /><path
   d="M -7709.4861,562.61980 L -7506.1010,562.61980 L -7506.1010,636.40424 L -7844.0567,636.40424 L -7844.0567,631.05200 L -7811.9432,593.20402 C -7761.7343,531.01621 -7721.8474,478.25847 -7692.2825,434.93067 C -7662.4631,391.60326 -7643.0931,358.85269 -7634.1724,336.67885 C -7624.9974,314.50561 -7620.4098,292.58694 -7620.4095,270.92277 C -7620.4098,240.84868 -7628.9479,216.76363 -7646.0238,198.66754 C -7663.1002,180.31746 -7685.7835,171.14220 -7714.0737,171.14174 C -7735.4828,171.14220 -7756.6369,177.51391 -7777.5360,190.25688 C -7798.1804,202.74587 -7816.7858,220.45922 -7833.3522,243.39697 L -7833.3522,146.29206 C -7791.8087,112.39507 -7748.9908,95.446328 -7704.8985,95.445787 C -7658.2577,95.446328 -7619.9001,110.99329 -7589.8253,142.08673 C -7559.4963,173.18115 -7544.3316,212.68573 -7544.3313,260.60059 C -7544.3316,282.00990 -7548.1546,304.94805 -7555.8004,329.41509 C -7563.1919,353.62789 -7576.4450,381.66340 -7595.5599,413.52171 C -7614.6753,445.12560 -7647.1710,488.32577 -7693.0471,543.12235 L -7709.4861,562.61980"
   transform="matrix(2.648450e-14,-1.000000,1.000000,2.648450e-14,0.000000,0.000000)"
   style="font-size:782.95612px;font-style:normal;font-variant:normal;font-weight:normal;font-stretch:normal;text-align:start;line-height:125.00000%;writing-mode:lr-tb;text-anchor:start;fill:#000000;font-family:Gill Sans MT"
   id="text1775" /><path
   d="M -2952.9483,425.75540 L -2762.5615,425.75540 L -2762.5615,500.30444 L -2952.9483,500.30444 L -2952.9483,425.75540 M -2572.1747,102.32724 L -2495.7141,102.32724 L -2495.7141,636.40424 L -2572.1747,636.40424 L -2572.1747,102.32724"
   transform="matrix(2.648450e-14,-1.000000,1.000000,2.648450e-14,0.000000,0.000000)"
   style="font-size:782.95612px;font-style:normal;font-variant:normal;font-weight:normal;font-stretch:normal;text-align:start;line-height:125.00000%;writing-mode:lr-tb;text-anchor:start;fill:#000000;font-family:Gill Sans MT"
   id="text1777" /><path
   d="M 1060.7405,7218.4995 C 1060.7405,7219.0972 1060.4924,7219.5874 1059.9963,7219.9702 C 1059.5041,7220.3530 1058.8303,7220.5444 1057.9749,7220.5444 C 1057.4905,7220.5444 1057.0452,7220.4878 1056.6389,7220.3745 C 1056.2366,7220.2573 1055.8987,7220.1304 1055.6252,7219.9937 L 1055.6252,7218.7573 L 1055.6838,7218.7573 C 1056.0315,7219.0190 1056.4182,7219.2280 1056.8440,7219.3843 C 1057.2698,7219.5366 1057.6780,7219.6128 1058.0686,7219.6128 C 1058.5530,7219.6128 1058.9319,7219.5347 1059.2053,7219.3784 C 1059.4788,7219.2222 1059.6155,7218.9761 1059.6155,7218.6401 C 1059.6155,7218.3823 1059.5413,7218.1870 1059.3928,7218.0542 C 1059.2444,7217.9214 1058.9592,7217.8081 1058.5374,7217.7144 C 1058.3811,7217.6792 1058.1760,7217.6382 1057.9221,7217.5913 C 1057.6721,7217.5444 1057.4436,7217.4937 1057.2366,7217.4390 C 1056.6624,7217.2866 1056.2541,7217.0640 1056.0120,7216.7710 C 1055.7737,7216.4741 1055.6545,7216.1108 1055.6545,7215.6812 C 1055.6545,7215.4116 1055.7092,7215.1577 1055.8186,7214.9194 C 1055.9319,7214.6812 1056.1018,7214.4683 1056.3284,7214.2808 C 1056.5471,7214.0972 1056.8245,7213.9526 1057.1604,7213.8472 C 1057.5002,7213.7378 1057.8791,7213.6831 1058.2971,7213.6831 C 1058.6877,7213.6831 1059.0823,7213.7319 1059.4807,7213.8296 C 1059.8831,7213.9233 1060.2170,7214.0386 1060.4827,7214.1753 L 1060.4827,7215.3530 L 1060.4241,7215.3530 C 1060.1428,7215.1460 1059.8010,7214.9722 1059.3987,7214.8315 C 1058.9963,7214.6870 1058.6018,7214.6148 1058.2151,7214.6147 C 1057.8127,7214.6148 1057.4729,7214.6929 1057.1956,7214.8491 C 1056.9182,7215.0015 1056.7795,7215.2300 1056.7795,7215.5347 C 1056.7795,7215.8042 1056.8635,7216.0073 1057.0315,7216.1440 C 1057.1956,7216.2808 1057.4612,7216.3921 1057.8284,7216.4780 C 1058.0315,7216.5249 1058.2581,7216.5718 1058.5081,7216.6187 C 1058.7620,7216.6655 1058.9729,7216.7085 1059.1409,7216.7476 C 1059.6526,7216.8647 1060.0471,7217.0659 1060.3245,7217.3511 C 1060.6018,7217.6401 1060.7405,7218.0230 1060.7405,7218.4995"
   style="font-size:12.000000px;font-style:normal;font-weight:normal;fill:#000000;fill-opacity:1.0000000;stroke:none;stroke-width:1.0000000px;stroke-linecap:butt;stroke-linejoin:miter;stroke-opacity:1.0000000;font-family:Bitstream Vera Sans"
   id="text2931" /><path
   d="M 7476.6023,-2778.9961 L 11742.394,-2778.9961"
   style="fill:none;fill-opacity:0.75000000;fill-rule:evenodd;stroke:#000000;stroke-width:35.268749;stroke-linecap:butt;stroke-linejoin:miter;stroke-miterlimit:4.0000000;stroke-dasharray:none;stroke-opacity:1.0000000"
   id="path2941" /><path
   d="M 16604.478,9467.9537 L 20870.270,9467.9537"
   style="fill:none;fill-opacity:0.75000000;fill-rule:evenodd;stroke:#000000;stroke-width:35.268749;stroke-linecap:butt;stroke-linejoin:miter;stroke-miterlimit:4.0000000;stroke-dasharray:none;stroke-opacity:1.0000000"
   id="path2943" /><path
   d="M 22429.805,18687.567 L 26695.597,18687.567"
   style="fill:none;fill-opacity:0.75000000;fill-rule:evenodd;stroke:#000000;stroke-width:35.268749;stroke-linecap:butt;stroke-linejoin:miter;stroke-miterlimit:4.0000000;stroke-dasharray:none;stroke-opacity:1.0000000"
   id="path2945" /><path
   d="M 12390.024,-3280.9880 L 12499.168,-3280.9880 L 12499.168,-2518.6216 L 12390.024,-2518.6216 L 12390.024,-3280.9880 M 13514.747,-2883.1604 L 13514.747,-2518.6216 L 13414.881,-2518.6216 L 13414.881,-2798.0286 C 13414.880,-2853.6914 13407.422,-2892.4372 13392.506,-2914.2663 C 13377.590,-2936.4583 13351.577,-2947.5546 13314.469,-2947.5550 C 13293.731,-2947.5546 13274.631,-2942.8250 13257.168,-2933.3664 C 13240.069,-2923.9069 13220.423,-2907.1716 13198.231,-2883.1604 L 13198.231,-2518.6216 L 13098.911,-2518.6216 L 13098.911,-3020.6811 L 13198.231,-3020.6811 L 13198.231,-2954.6493 C 13248.801,-3005.2186 13298.279,-3030.5034 13346.666,-3030.5040 C 13410.333,-3030.5034 13459.629,-3000.3071 13494.555,-2939.9150 C 13547.671,-3001.0348 13603.152,-3031.5949 13660.999,-3031.5954 C 13709.749,-3031.5949 13749.768,-3013.7682 13781.057,-2978.1151 C 13812.707,-2942.4612 13828.533,-2888.0715 13828.534,-2814.9458 L 13828.534,-2518.6216 L 13729.214,-2518.6216 L 13729.214,-2816.0373 C 13729.213,-2857.8752 13720.663,-2889.8906 13703.565,-2912.0834 C 13686.465,-2934.2755 13661.908,-2945.3717 13629.893,-2945.3721 C 13588.782,-2945.3717 13550.400,-2924.6345 13514.747,-2883.1604"
   style="font-size:1117.6281px;font-weight:normal;fill:#000000;font-family:Gill Sans MT"
   id="text3673" /><path
   d="M 14811.380,-2554.6389 L 14811.380,-2661.5994 C 14839.394,-2641.9535 14867.953,-2625.9458 14897.058,-2613.5763 C 14926.526,-2601.5705 14951.265,-2595.5676 14971.275,-2595.5677 C 14992.012,-2595.5676 15009.839,-2600.6609 15024.756,-2610.8477 C 15039.672,-2621.0343 15047.130,-2633.2220 15047.130,-2647.4108 C 15047.130,-2661.9631 15042.218,-2673.9688 15032.396,-2683.4281 C 15022.936,-2693.2508 15002.199,-2707.2575 14970.184,-2725.4483 C 14906.153,-2761.1015 14864.133,-2791.4797 14844.123,-2816.5830 C 14824.477,-2842.0494 14814.655,-2869.6991 14814.655,-2899.5319 C 14814.655,-2938.0955 14829.571,-2969.5651 14859.403,-2993.9409 C 14889.600,-3018.3158 14928.345,-3030.5034 14975.641,-3030.5040 C 15024.755,-3030.5034 15075.143,-3016.6786 15126.805,-2989.0295 L 15126.805,-2890.8005 C 15067.867,-2926.4535 15019.662,-2944.2803 14982.190,-2944.2807 C 14962.907,-2944.2803 14947.264,-2940.0965 14935.258,-2931.7292 C 14923.616,-2923.7250 14917.795,-2912.9925 14917.795,-2899.5319 C 14917.795,-2887.8896 14923.070,-2876.7934 14933.621,-2866.2432 C 14944.535,-2855.6923 14963.453,-2842.9590 14990.375,-2828.0430 L 15025.847,-2807.8515 C 15109.523,-2760.5558 15151.361,-2708.1670 15151.362,-2650.6851 C 15151.361,-2609.5743 15135.172,-2575.7399 15102.793,-2549.1817 C 15070.777,-2522.9873 15029.485,-2509.8901 14978.915,-2509.8901 C 14949.083,-2509.8901 14922.524,-2512.9825 14899.241,-2519.1673 C 14875.957,-2525.7159 14846.670,-2537.5397 14811.380,-2554.6389"
   style="font-size:1117.6281px;font-weight:normal;fill:#000000;font-family:Gill Sans MT"
   id="text3677" /><path
   d="M 13890.489,-3176.4677 L 14080.876,-3176.4677 L 14080.876,-3101.9186 L 13890.489,-3101.9186 L 13890.489,-3176.4677 M 14274.321,-3039.6033 L 14477.707,-3039.6033 L 14477.707,-2965.8188 L 14139.751,-2965.8188 L 14139.751,-2971.1711 L 14171.864,-3009.0191 C 14222.073,-3071.2069 14261.960,-3123.9646 14291.525,-3167.2924 C 14321.344,-3210.6198 14340.714,-3243.3704 14349.635,-3265.5442 C 14358.810,-3287.7175 14363.398,-3309.6361 14363.398,-3331.3003 C 14363.398,-3361.3744 14354.860,-3385.4595 14337.784,-3403.5555 C 14320.707,-3421.9056 14298.024,-3431.0809 14269.734,-3431.0813 C 14248.325,-3431.0809 14227.171,-3424.7092 14206.272,-3411.9662 C 14185.627,-3399.4772 14167.022,-3381.7639 14150.455,-3358.8261 L 14150.455,-3455.9310 C 14191.999,-3489.8280 14234.817,-3506.7768 14278.909,-3506.7773 C 14325.550,-3506.7768 14363.907,-3491.2298 14393.982,-3460.1364 C 14424.311,-3429.0419 14439.476,-3389.5374 14439.476,-3341.6225 C 14439.476,-3320.2132 14435.653,-3297.2750 14428.007,-3272.8080 C 14420.616,-3248.5952 14407.363,-3220.5597 14388.248,-3188.7014 C 14369.132,-3157.0975 14336.637,-3113.8973 14290.760,-3059.1007 L 14274.321,-3039.6033"
   style="font-size:782.95612px;font-style:normal;font-variant:normal;font-weight:normal;font-stretch:normal;text-align:start;line-height:125.00000%;writing-mode:lr-tb;text-anchor:start;fill:#000000;font-family:Gill Sans MT"
   id="text3679" /><path
   d="M 15191.401,-3176.4677 L 15381.787,-3176.4677 L 15381.787,-3101.9186 L 15191.401,-3101.9186 L 15191.401,-3176.4677 M 15572.174,-3499.8958 L 15648.635,-3499.8958 L 15648.635,-2965.8188 L 15572.174,-2965.8188 L 15572.174,-3499.8958"
   style="font-size:782.95612px;font-style:normal;font-variant:normal;font-weight:normal;font-stretch:normal;text-align:start;line-height:125.00000%;writing-mode:lr-tb;text-anchor:start;fill:#000000;font-family:Gill Sans MT"
   id="text3681" /><path
   d="M -2541.4829,-14787.085 C -2541.4829,-14786.487 -2541.7310,-14785.997 -2542.2271,-14785.614 C -2542.7192,-14785.231 -2543.3931,-14785.040 -2544.2485,-14785.040 C -2544.7329,-14785.040 -2545.1782,-14785.097 -2545.5845,-14785.210 C -2545.9868,-14785.327 -2546.3247,-14785.454 -2546.5981,-14785.591 L -2546.5981,-14786.827 L -2546.5396,-14786.827 C -2546.1919,-14786.565 -2545.8052,-14786.356 -2545.3794,-14786.200 C -2544.9536,-14786.048 -2544.5454,-14785.972 -2544.1548,-14785.972 C -2543.6704,-14785.972 -2543.2915,-14786.050 -2543.0181,-14786.206 C -2542.7446,-14786.362 -2542.6079,-14786.608 -2542.6079,-14786.944 C -2542.6079,-14787.202 -2542.6821,-14787.397 -2542.8306,-14787.530 C -2542.9790,-14787.663 -2543.2642,-14787.776 -2543.6860,-14787.870 C -2543.8423,-14787.905 -2544.0474,-14787.946 -2544.3013,-14787.993 C -2544.5513,-14788.040 -2544.7798,-14788.091 -2544.9868,-14788.146 C -2545.5610,-14788.298 -2545.9692,-14788.521 -2546.2114,-14788.813 C -2546.4497,-14789.110 -2546.5688,-14789.474 -2546.5688,-14789.903 C -2546.5688,-14790.173 -2546.5142,-14790.427 -2546.4048,-14790.665 C -2546.2915,-14790.903 -2546.1216,-14791.116 -2545.8950,-14791.304 C -2545.6763,-14791.487 -2545.3989,-14791.632 -2545.0630,-14791.737 C -2544.7231,-14791.847 -2544.3442,-14791.901 -2543.9263,-14791.901 C -2543.5356,-14791.901 -2543.1411,-14791.853 -2542.7427,-14791.755 C -2542.3403,-14791.661 -2542.0064,-14791.546 -2541.7407,-14791.409 L -2541.7407,-14790.231 L -2541.7993,-14790.231 C -2542.0806,-14790.438 -2542.4224,-14790.612 -2542.8247,-14790.753 C -2543.2271,-14790.897 -2543.6216,-14790.970 -2544.0083,-14790.970 C -2544.4106,-14790.970 -2544.7505,-14790.892 -2545.0278,-14790.735 C -2545.3052,-14790.583 -2545.4438,-14790.354 -2545.4438,-14790.050 C -2545.4438,-14789.780 -2545.3599,-14789.577 -2545.1919,-14789.440 C -2545.0278,-14789.304 -2544.7622,-14789.192 -2544.3950,-14789.106 C -2544.1919,-14789.060 -2543.9653,-14789.013 -2543.7153,-14788.966 C -2543.4614,-14788.919 -2543.2505,-14788.876 -2543.0825,-14788.837 C -2542.5708,-14788.720 -2542.1763,-14788.519 -2541.8989,-14788.233 C -2541.6216,-14787.944 -2541.4829,-14787.562 -2541.4829,-14787.085"
   transform="matrix(5.658722e-16,1.000000,-1.000000,5.658722e-16,0.000000,0.000000)"
   style="font-size:12.000000px;font-style:normal;font-weight:normal;fill:#000000;fill-opacity:1.0000000;stroke:none;stroke-width:1.0000000px;stroke-linecap:butt;stroke-linejoin:miter;stroke-opacity:1.0000000;font-family:Bitstream Vera Sans"
   id="text3683" /><path
   d="M 21334.427,9011.8309 L 21443.570,9011.8309 L 21443.570,9774.1973 L 21334.427,9774.1973 L 21334.427,9011.8309 M 22459.149,9409.6584 L 22459.149,9774.1973 L 22359.283,9774.1973 L 22359.283,9494.7903 C 22359.283,9439.1275 22351.824,9400.3816 22336.909,9378.5526 C 22321.992,9356.3605 22295.979,9345.2643 22258.871,9345.2638 C 22238.134,9345.2643 22219.033,9349.9938 22201.571,9359.4525 C 22184.471,9368.9120 22164.826,9385.6473 22142.633,9409.6584 L 22142.633,9774.1973 L 22043.313,9774.1973 L 22043.313,9272.1378 L 22142.633,9272.1378 L 22142.633,9338.1695 C 22193.203,9287.6003 22242.681,9262.3154 22291.068,9262.3149 C 22354.735,9262.3154 22404.031,9292.5117 22438.958,9352.9039 C 22492.074,9291.7841 22547.555,9261.2240 22605.401,9261.2235 C 22654.151,9261.2240 22694.170,9279.0507 22725.459,9314.7037 C 22757.110,9350.3576 22772.936,9404.7473 22772.936,9477.8730 L 22772.936,9774.1973 L 22673.616,9774.1973 L 22673.616,9476.7816 C 22673.615,9434.9436 22665.066,9402.9283 22647.967,9380.7354 C 22630.867,9358.5434 22606.310,9347.4471 22574.295,9347.4467 C 22533.184,9347.4471 22494.802,9368.1844 22459.149,9409.6584"
   style="font-size:1117.6281px;font-weight:normal;fill:#000000;font-family:Gill Sans MT"
   id="text3720" /><path
   d="M 24087.577,9272.1378 L 24199.449,9272.1378 L 23844.188,10030.138 L 23733.407,10030.138 L 23904.217,9666.6911 L 23709.941,9272.1378 L 23822.905,9272.1378 L 23958.243,9555.3648 L 24087.577,9272.1378 M 24375.716,9272.1378 L 24375.716,9387.2840 L 24381.173,9378.5526 C 24429.196,9301.0613 24477.219,9262.3154 24525.242,9262.3149 C 24562.715,9262.3154 24601.824,9281.2336 24642.571,9319.0694 L 24590.183,9406.3841 C 24555.620,9373.6415 24523.605,9357.2700 24494.136,9357.2696 C 24462.121,9357.2700 24434.289,9372.5501 24410.642,9403.1098 C 24387.358,9433.6703 24375.716,9469.8695 24375.716,9511.7075 L 24375.716,9774.1973 L 24275.850,9774.1973 L 24275.850,9272.1378 L 24375.716,9272.1378"
   style="font-size:1117.6281px;font-weight:normal;fill:#000000;font-family:Gill Sans MT"
   id="text3722" /><path
   d="M 22834.892,9116.3512 L 23025.279,9116.3512 L 23025.279,9190.9002 L 22834.892,9190.9002 L 22834.892,9116.3512 M 23218.724,9253.2156 L 23422.109,9253.2156 L 23422.109,9327.0000 L 23084.153,9327.0000 L 23084.153,9321.6478 L 23116.267,9283.7998 C 23166.476,9221.6120 23206.363,9168.8542 23235.927,9125.5264 C 23265.747,9082.1990 23285.117,9049.4485 23294.037,9027.2746 C 23303.212,9005.1014 23307.800,8983.1827 23307.800,8961.5185 C 23307.800,8931.4444 23299.262,8907.3594 23282.186,8889.2633 C 23265.110,8870.9132 23242.426,8861.7380 23214.136,8861.7375 C 23192.727,8861.7380 23171.573,8868.1097 23150.674,8880.8526 C 23130.029,8893.3416 23111.424,8911.0550 23094.858,8933.9927 L 23094.858,8836.8878 C 23136.401,8802.9908 23179.219,8786.0421 23223.311,8786.0416 C 23269.952,8786.0421 23308.310,8801.5891 23338.385,8832.6825 C 23368.714,8863.7769 23383.878,8903.2815 23383.879,8951.1964 C 23383.878,8972.6057 23380.055,8995.5438 23372.410,9020.0109 C 23365.018,9044.2237 23351.765,9072.2592 23332.650,9104.1175 C 23313.535,9135.7214 23281.039,9178.9215 23235.163,9233.7181 L 23218.724,9253.2156"
   style="font-size:782.95612px;font-style:normal;font-variant:normal;font-weight:normal;font-stretch:normal;text-align:start;line-height:125.00000%;writing-mode:lr-tb;text-anchor:start;fill:#000000;font-family:Gill Sans MT"
   id="text3724" /><path
   d="M 24777.964,9116.3512 L 24968.351,9116.3512 L 24968.351,9190.9002 L 24777.964,9190.9002 L 24777.964,9116.3512 M 25158.738,8792.9230 L 25235.198,8792.9230 L 25235.198,9327.0000 L 25158.738,9327.0000 L 25158.738,8792.9230"
   style="font-size:782.95612px;font-style:normal;font-variant:normal;font-weight:normal;font-stretch:normal;text-align:start;line-height:125.00000%;writing-mode:lr-tb;text-anchor:start;fill:#000000;font-family:Gill Sans MT"
   id="text3726" /><path
   d="M 9751.3359,-23731.486 C 9751.3359,-23730.889 9751.0879,-23730.398 9750.5918,-23730.016 C 9750.0996,-23729.633 9749.4258,-23729.441 9748.5703,-23729.441 C 9748.0859,-23729.441 9747.6406,-23729.498 9747.2344,-23729.611 C 9746.8320,-23729.729 9746.4941,-23729.855 9746.2207,-23729.992 L 9746.2207,-23731.229 L 9746.2793,-23731.229 C 9746.6270,-23730.967 9747.0137,-23730.758 9747.4395,-23730.602 C 9747.8652,-23730.449 9748.2734,-23730.373 9748.6641,-23730.373 C 9749.1484,-23730.373 9749.5273,-23730.451 9749.8008,-23730.607 C 9750.0742,-23730.764 9750.2109,-23731.010 9750.2109,-23731.346 C 9750.2109,-23731.604 9750.1367,-23731.799 9749.9883,-23731.932 C 9749.8398,-23732.064 9749.5547,-23732.178 9749.1328,-23732.271 C 9748.9766,-23732.307 9748.7715,-23732.348 9748.5176,-23732.395 C 9748.2676,-23732.441 9748.0391,-23732.492 9747.8320,-23732.547 C 9747.2578,-23732.699 9746.8496,-23732.922 9746.6074,-23733.215 C 9746.3691,-23733.512 9746.2500,-23733.875 9746.2500,-23734.305 C 9746.2500,-23734.574 9746.3047,-23734.828 9746.4141,-23735.066 C 9746.5273,-23735.305 9746.6973,-23735.518 9746.9238,-23735.705 C 9747.1426,-23735.889 9747.4199,-23736.033 9747.7559,-23736.139 C 9748.0957,-23736.248 9748.4746,-23736.303 9748.8926,-23736.303 C 9749.2832,-23736.303 9749.6777,-23736.254 9750.0762,-23736.156 C 9750.4785,-23736.062 9750.8125,-23735.947 9751.0781,-23735.811 L 9751.0781,-23734.633 L 9751.0195,-23734.633 C 9750.7383,-23734.840 9750.3965,-23735.014 9749.9941,-23735.154 C 9749.5918,-23735.299 9749.1973,-23735.371 9748.8105,-23735.371 C 9748.4082,-23735.371 9748.0684,-23735.293 9747.7910,-23735.137 C 9747.5137,-23734.984 9747.3750,-23734.756 9747.3750,-23734.451 C 9747.3750,-23734.182 9747.4590,-23733.979 9747.6270,-23733.842 C 9747.7910,-23733.705 9748.0566,-23733.594 9748.4238,-23733.508 C 9748.6270,-23733.461 9748.8535,-23733.414 9749.1035,-23733.367 C 9749.3574,-23733.320 9749.5684,-23733.277 9749.7363,-23733.238 C 9750.2480,-23733.121 9750.6426,-23732.920 9750.9199,-23732.635 C 9751.1973,-23732.346 9751.3359,-23731.963 9751.3359,-23731.486"
   transform="matrix(5.658722e-16,1.000000,-1.000000,5.658722e-16,0.000000,0.000000)"
   style="font-size:12.000000px;font-style:normal;font-weight:normal;fill:#000000;fill-opacity:1.0000000;stroke:none;stroke-width:1.0000000px;stroke-linecap:butt;stroke-linejoin:miter;stroke-opacity:1.0000000;font-family:Bitstream Vera Sans"
   id="text3728" /><path
   d="M 17527.323,18277.313 L 17636.467,18277.313 L 17636.467,19039.680 L 17527.323,19039.680 L 17527.323,18277.313 M 18566.914,18537.620 L 18685.334,18537.620 L 18470.868,18783.738 L 18728.992,19039.680 L 18595.837,19039.680 L 18344.261,18783.738 L 18566.914,18537.620 M 18240.575,18277.313 L 18339.896,18277.313 L 18339.896,19039.680 L 18240.575,19039.680 L 18240.575,18277.313 M 19189.031,18675.141 L 19189.031,19039.680 L 19089.165,19039.680 L 19089.165,18760.273 C 19089.164,18704.610 19081.706,18665.864 19066.790,18644.035 C 19051.874,18621.843 19025.861,18610.747 18988.753,18610.746 C 18968.015,18610.747 18948.915,18615.476 18931.453,18624.935 C 18914.353,18634.394 18894.708,18651.130 18872.515,18675.141 L 18872.515,19039.680 L 18773.195,19039.680 L 18773.195,18537.620 L 18872.515,18537.620 L 18872.515,18603.652 C 18923.085,18553.083 18972.563,18527.798 19020.950,18527.797 C 19084.617,18527.798 19133.913,18557.994 19168.840,18618.386 C 19221.955,18557.266 19277.437,18526.706 19335.283,18526.706 C 19384.033,18526.706 19424.052,18544.533 19455.341,18580.186 C 19486.992,18615.840 19502.817,18670.230 19502.818,18743.355 L 19502.818,19039.680 L 19403.498,19039.680 L 19403.498,18742.264 C 19403.497,18700.426 19394.947,18668.411 19377.849,18646.218 C 19360.749,18624.026 19336.192,18612.930 19304.177,18612.929 C 19263.066,18612.930 19224.684,18633.667 19189.031,18675.141"
   style="font-size:1117.6281px;font-weight:normal;fill:#000000;font-family:Gill Sans MT"
   id="text3732" /><path
   d="M 20876.767,18537.620 L 20988.639,18537.620 L 20633.377,19295.621 L 20522.597,19295.621 L 20693.406,18932.173 L 20499.131,18537.620 L 20612.094,18537.620 L 20747.432,18820.847 L 20876.767,18537.620 M 21164.905,18537.620 L 21164.905,18652.766 L 21170.363,18644.035 C 21218.385,18566.544 21266.408,18527.798 21314.432,18527.797 C 21351.904,18527.798 21391.014,18546.716 21431.761,18584.552 L 21379.372,18671.867 C 21344.810,18639.124 21312.794,18622.752 21283.326,18622.752 C 21251.310,18622.752 21223.479,18638.033 21199.831,18668.592 C 21176.547,18699.153 21164.905,18735.352 21164.905,18777.190 L 21164.905,19039.680 L 21065.039,19039.680 L 21065.039,18537.620 L 21164.905,18537.620"
   style="font-size:1117.6281px;font-weight:normal;fill:#000000;font-family:Gill Sans MT"
   id="text3734" /><path
   d="M 19624.081,18381.834 L 19814.468,18381.834 L 19814.468,18456.383 L 19624.081,18456.383 L 19624.081,18381.834 M 20007.913,18518.698 L 20211.298,18518.698 L 20211.298,18592.482 L 19873.343,18592.482 L 19873.343,18587.130 L 19905.456,18549.282 C 19955.665,18487.094 19995.552,18434.337 20025.117,18391.009 C 20054.936,18347.681 20074.306,18314.931 20083.227,18292.757 C 20092.402,18270.584 20096.990,18248.665 20096.990,18227.001 C 20096.990,18196.927 20088.451,18172.842 20071.376,18154.746 C 20054.299,18136.396 20031.616,18127.220 20003.326,18127.220 C 19981.917,18127.220 19960.762,18133.592 19939.863,18146.335 C 19919.219,18158.824 19900.614,18176.537 19884.047,18199.475 L 19884.047,18102.370 C 19925.591,18068.473 19968.409,18051.525 20012.501,18051.524 C 20059.142,18051.525 20097.499,18067.071 20127.574,18098.165 C 20157.903,18129.259 20173.068,18168.764 20173.068,18216.679 C 20173.068,18238.088 20169.245,18261.026 20161.599,18285.493 C 20154.207,18309.706 20140.954,18337.742 20121.839,18369.600 C 20102.724,18401.204 20070.228,18444.404 20024.352,18499.201 L 20007.913,18518.698"
   style="font-size:782.95612px;font-style:normal;font-variant:normal;font-weight:normal;font-stretch:normal;text-align:start;line-height:125.00000%;writing-mode:lr-tb;text-anchor:start;fill:#000000;font-family:Gill Sans MT"
   id="text3736" /><path
   d="M 21521.284,18381.834 L 21711.671,18381.834 L 21711.671,18456.383 L 21521.284,18456.383 L 21521.284,18381.834 M 21902.058,18058.405 L 21978.519,18058.405 L 21978.519,18592.482 L 21902.058,18592.482 L 21902.058,18058.405"
   style="font-size:782.95612px;font-style:normal;font-variant:normal;font-weight:normal;font-stretch:normal;text-align:start;line-height:125.00000%;writing-mode:lr-tb;text-anchor:start;fill:#000000;font-family:Gill Sans MT"
   id="text3738" /><path
   d="M 19016.818,-20520.676 C 19016.818,-20520.078 19016.570,-20519.588 19016.074,-20519.205 C 19015.582,-20518.822 19014.908,-20518.631 19014.053,-20518.631 C 19013.568,-20518.631 19013.123,-20518.688 19012.717,-20518.801 C 19012.314,-20518.918 19011.977,-20519.045 19011.703,-20519.182 L 19011.703,-20520.418 L 19011.762,-20520.418 C 19012.109,-20520.156 19012.496,-20519.947 19012.922,-20519.791 C 19013.348,-20519.639 19013.756,-20519.562 19014.146,-20519.562 C 19014.631,-20519.562 19015.010,-20519.641 19015.283,-20519.797 C 19015.557,-20519.953 19015.693,-20520.199 19015.693,-20520.535 C 19015.693,-20520.793 19015.619,-20520.988 19015.471,-20521.121 C 19015.322,-20521.254 19015.037,-20521.367 19014.615,-20521.461 C 19014.459,-20521.496 19014.254,-20521.537 19014.000,-20521.584 C 19013.750,-20521.631 19013.521,-20521.682 19013.314,-20521.736 C 19012.740,-20521.889 19012.332,-20522.111 19012.090,-20522.404 C 19011.852,-20522.701 19011.732,-20523.064 19011.732,-20523.494 C 19011.732,-20523.764 19011.787,-20524.018 19011.896,-20524.256 C 19012.010,-20524.494 19012.180,-20524.707 19012.406,-20524.895 C 19012.625,-20525.078 19012.902,-20525.223 19013.238,-20525.328 C 19013.578,-20525.437 19013.957,-20525.492 19014.375,-20525.492 C 19014.766,-20525.492 19015.160,-20525.443 19015.559,-20525.346 C 19015.961,-20525.252 19016.295,-20525.137 19016.561,-20525.000 L 19016.561,-20523.822 L 19016.502,-20523.822 C 19016.221,-20524.029 19015.879,-20524.203 19015.477,-20524.344 C 19015.074,-20524.488 19014.680,-20524.561 19014.293,-20524.561 C 19013.891,-20524.561 19013.551,-20524.482 19013.273,-20524.326 C 19012.996,-20524.174 19012.857,-20523.945 19012.857,-20523.641 C 19012.857,-20523.371 19012.941,-20523.168 19013.109,-20523.031 C 19013.273,-20522.895 19013.539,-20522.783 19013.906,-20522.697 C 19014.109,-20522.650 19014.336,-20522.604 19014.586,-20522.557 C 19014.840,-20522.510 19015.051,-20522.467 19015.219,-20522.428 C 19015.730,-20522.311 19016.125,-20522.109 19016.402,-20521.824 C 19016.680,-20521.535 19016.818,-20521.152 19016.818,-20520.676"
   transform="matrix(5.658722e-16,1.000000,-1.000000,5.658722e-16,0.000000,0.000000)"
   style="font-size:12.000000px;font-style:normal;font-weight:normal;fill:#000000;fill-opacity:1.0000000;stroke:none;stroke-width:1.0000000px;stroke-linecap:butt;stroke-linejoin:miter;stroke-opacity:1.0000000;font-family:Bitstream Vera Sans"
   id="text3740" /></svg>