<?xml version="1.0" encoding="UTF-8" standalone="no"?>
<!-- Created with Inkscape (http://www.inkscape.org/) -->

<svg
   xmlns:dc="http://purl.org/dc/elements/1.1/"
   xmlns:cc="http://creativecommons.org/ns#"
   xmlns:rdf="http://www.w3.org/1999/02/22-rdf-syntax-ns#"
   xmlns:svg="http://www.w3.org/2000/svg"
   xmlns="http://www.w3.org/2000/svg"
   xmlns:sodipodi="http://sodipodi.sourceforge.net/DTD/sodipodi-0.dtd"
   xmlns:inkscape="http://www.inkscape.org/namespaces/inkscape"
   width="675"
   height="550"
   id="svg3257"
   version="1.1"
   inkscape:version="0.48.2 r9819"
   sodipodi:docname="Lorentz_force.svg">
  <defs
     id="defs3259">
    <inkscape:path-effect
       effect="spiro"
       id="path-effect4181"
       is_visible="true" />
    <inkscape:path-effect
       effect="spiro"
       id="path-effect4102"
       is_visible="true" />
    <inkscape:path-effect
       effect="spiro"
       id="path-effect3330"
       is_visible="true" />
  </defs>
  <sodipodi:namedview
     id="base"
     pagecolor="#ffffff"
     bordercolor="#666666"
     borderopacity="1.0"
     inkscape:pageopacity="0.0"
     inkscape:pageshadow="2"
     inkscape:zoom="0.49497475"
     inkscape:cx="76.310401"
     inkscape:cy="430.65917"
     inkscape:document-units="px"
     inkscape:current-layer="layer1"
     showgrid="true"
     inkscape:window-width="1280"
     inkscape:window-height="951"
     inkscape:window-x="-3"
     inkscape:window-y="-3"
     inkscape:window-maximized="1">
    <inkscape:grid
       type="xygrid"
       id="grid3324"
       empspacing="5"
       visible="true"
       enabled="true"
       snapvisiblegridlinesonly="true"
       spacingx="5px"
       spacingy="5px" />
  </sodipodi:namedview>
  <metadata
     id="metadata3262">
    <rdf:RDF>
      <cc:Work
         rdf:about="">
        <dc:format>image/svg+xml</dc:format>
        <dc:type
           rdf:resource="http://purl.org/dc/dcmitype/StillImage" />
        <dc:title></dc:title>
      </cc:Work>
    </rdf:RDF>
  </metadata>
  <g
     inkscape:label="Ebene 1"
     inkscape:groupmode="layer"
     id="layer1"
     transform="translate(0,-502.36218)">
    <path
       style="fill:#ffffff;stroke:none;stroke-width:1px;stroke-linecap:butt;stroke-linejoin:miter;stroke-opacity:1"
       d="M 175,0 175,550 0,550 0,0 175,0"
       id="path4179"
       inkscape:path-effect="#path-effect4181"
       inkscape:original-d="M 175,0 175,550 0,550 0,0 z"
       inkscape:connector-curvature="0"
       transform="translate(0,502.36218)" />
    <path
       style="fill:#c4c4ff;stroke:none;stroke-width:1px;stroke-linecap:butt;stroke-linejoin:miter;stroke-opacity:1;fill-opacity:1"
       d="m 175,0 0,550 500,0 0,-550 -500,0"
       id="path3328"
       inkscape:path-effect="#path-effect3330"
       inkscape:original-d="m 175,0 0,550 500,0 0,-550 z"
       inkscape:connector-curvature="0"
       transform="translate(0,502.36218)" />
    <path
       inkscape:connector-curvature="0"
       id="path6"
       d="M 400.12192,1006.7083 C 403.91597,945.55073 381.49615,885.66969 338.46985,842.04189 295.44355,798.41409 235.87948,775.16518 174.67511,778.10988"
       style="fill:none;stroke:#000000;stroke-width:3.68623304" />
    <polygon
       transform="matrix(36.77286,2.5667686,-2.5667686,36.77286,130.88819,174.58316)"
       id="polygon8"
       points="9.1048,22.0495 8.61095,21.9714 8.61095,21.9714 8.73282,22.8006 "
       style="fill:#000000" />
    <g
       transform="matrix(31.083074,0,0,31.083074,43.288528,436.46577)"
       id="g1345">
      <ellipse
         d="m 16.25,15 c 0,0.138071 -0.111929,0.25 -0.25,0.25 -0.138071,0 -0.25,-0.111929 -0.25,-0.25 0,-0.138071 0.111929,-0.25 0.25,-0.25 0.138071,0 0.25,0.111929 0.25,0.25 z"
         sodipodi:ry="0.25"
         sodipodi:rx="0.25"
         sodipodi:cy="15"
         sodipodi:cx="16"
         style="fill:#000080"
         cx="16"
         cy="15"
         rx="0.25"
         ry="0.25"
         id="ellipse10" />
      <ellipse
         d="m 17.55,15 c 0,0.856041 -0.693959,1.55 -1.55,1.55 -0.856041,0 -1.55,-0.693959 -1.55,-1.55 0,-0.856041 0.693959,-1.55 1.55,-1.55 0.856041,0 1.55,0.693959 1.55,1.55 z"
         sodipodi:ry="1.55"
         sodipodi:rx="1.55"
         sodipodi:cy="15"
         sodipodi:cx="16"
         style="fill:none;stroke:#000080;stroke-width:0.10000000000000001"
         cx="16"
         cy="15"
         rx="1.55"
         ry="1.55"
         id="ellipse4" />
    </g>
    <line
       id="line14"
       y2="777.71185"
       x2="632.38959"
       y1="777.71185"
       x1="173.92593"
       style="fill:none;stroke:#000000;stroke-width:2.78295088" />
    <line
       id="line18"
       y2="777.71185"
       x2="157.91563"
       y1="777.71185"
       x1="36.691635"
       style="fill:none;stroke:#000000;stroke-width:4.66246128" />
    <path
       inkscape:connector-curvature="0"
       id="path20"
       d="m 21.150105,777.71189 c 0,-3.88539 3.885385,-7.77077 7.770769,-7.77077 3.885384,0 7.770769,3.88538 7.770769,7.77077 0,3.88538 -3.885385,7.77077 -7.770769,7.77077 -3.885384,0 -7.770769,-3.88539 -7.770769,-7.77077 z"
       style="fill:#ffffff" />
    <path
       inkscape:connector-curvature="0"
       id="path22"
       d="m 21.150105,777.71189 c 0,-3.88539 3.885385,-7.77077 7.770769,-7.77077 3.885384,0 7.770769,3.88538 7.770769,7.77077 0,3.88538 -3.885385,7.77077 -7.770769,7.77077 -3.885384,0 -7.770769,-3.88539 -7.770769,-7.77077"
       style="fill:#000000;fill-opacity:0;stroke:#000000;stroke-width:4.66246128" />
    <polygon
       transform="matrix(31.083074,0,0,31.083074,174.23425,311.46577)"
       id="polygon24"
       points="-0.525,14.75 -0.525,15.25 -0.525,15.25 -0.025,15 "
       style="fill:#000000" />
    <g
       transform="matrix(36.77286,-2.5667686,-2.5667686,-36.77286,131.21309,1380.8889)"
       id="g1349">
      <path
         inkscape:connector-curvature="0"
         style="fill:none;stroke:#000000;stroke-width:0.1"
         d="M 8.85788,22.0105 C 8.8450312,20.348279 8.1251911,18.770121 6.8783973,17.670735 5.6316035,16.571349 3.9757577,16.054698 2.325,16.25"
         id="path1351" />
      <polygon
         style="fill:#000000"
         points="9.1048,22.0495 8.61095,21.9714 8.61095,21.9714 8.73282,22.8006 "
         id="polygon1353" />
    </g>
    <text
       sodipodi:linespacing="-104%"
       id="text1372"
       y="820.01038"
       x="8.4547215"
       style="font-size:43.0320015px;font-style:normal;font-variant:normal;font-weight:normal;font-stretch:normal;text-align:start;line-height:-103.99999619%;writing-mode:lr-tb;text-anchor:start;fill:#000000;fill-opacity:1;stroke:none;font-family:Bitstream Vera Sans"
       xml:space="preserve"><tspan
         y="820.01038"
         x="8.4547215"
         id="tspan1374"
         sodipodi:role="line">q</tspan></text>
    <text
       sodipodi:linespacing="-104%"
       id="text1376"
       y="994.6911"
       x="268.80316"
       style="font-size:43.0320015px;font-style:normal;font-variant:normal;font-weight:normal;font-stretch:normal;text-align:start;line-height:-103.99999619%;writing-mode:lr-tb;text-anchor:start;fill:#000000;fill-opacity:1;stroke:none;font-family:Bitstream Vera Sans"
       xml:space="preserve"><tspan
         id="tspan1380"
         y="994.6911"
         x="268.80316"
         sodipodi:role="line">q &gt; 0</tspan></text>
    <text
       sodipodi:linespacing="-104%"
       id="text1382"
       y="585.81049"
       x="267.61145"
       style="font-size:43.0320015px;font-style:normal;font-variant:normal;font-weight:normal;font-stretch:normal;text-align:start;line-height:-103.99999619%;writing-mode:lr-tb;text-anchor:start;fill:#000000;fill-opacity:1;stroke:none;font-family:Bitstream Vera Sans"
       xml:space="preserve"><tspan
         y="585.81049"
         x="267.61145"
         id="tspan1384"
         sodipodi:role="line">q &lt; 0</tspan></text>
    <text
       sodipodi:linespacing="-104%"
       id="text1386"
       y="818.95154"
       x="344.55118"
       style="font-size:43.0320015px;font-style:normal;font-variant:normal;font-weight:normal;font-stretch:normal;text-align:start;line-height:-103.99999619%;writing-mode:lr-tb;text-anchor:start;fill:#000000;fill-opacity:1;stroke:none;font-family:Bitstream Vera Sans"
       xml:space="preserve"><tspan
         y="818.95154"
         x="344.55118"
         id="tspan1388"
         sodipodi:role="line">q = 0</tspan><tspan
         id="tspan1390"
         y="774.19824"
         x="344.55118"
         sodipodi:role="line" /></text>
    <text
       sodipodi:linespacing="-104%"
       id="text1392"
       y="977.20135"
       x="583.12866"
       style="font-size:60px;font-style:normal;font-variant:normal;font-weight:normal;font-stretch:normal;text-align:start;line-height:-103.99999619%;writing-mode:lr-tb;text-anchor:start;fill:#000080;fill-opacity:1;stroke:#000080;stroke-width:1.5;font-family:Bitstream Vera Sans"
       xml:space="preserve"><tspan
         y="977.20135"
         x="583.12866"
         id="tspan1394"
         sodipodi:role="line">B</tspan></text>
    <text
       sodipodi:linespacing="-104%"
       id="text1396"
       y="753.77338"
       x="80.671326"
       style="font-size:43.0320015px;font-style:normal;font-variant:normal;font-weight:normal;font-stretch:normal;text-align:start;line-height:-103.99999619%;writing-mode:lr-tb;text-anchor:start;fill:#000000;fill-opacity:1;stroke:none;font-family:Bitstream Vera Sans"
       xml:space="preserve"><tspan
         y="753.77338"
         x="80.671326"
         id="tspan1398"
         sodipodi:role="line">v</tspan></text>
    <polygon
       transform="matrix(-5.6216659,-36.431147,36.431147,-5.6216659,-127.76675,1224.1199)"
       id="polygon1336"
       points="9.1048,22.0495 8.61095,21.9714 8.61095,21.9714 8.73282,22.8006 "
       style="fill:#000000" />
  </g>
</svg>
